# This file uses centimeters as units for non-parametric coordinates.

mtllib cabanet door v1.mtl
g default
v -33.035271 0.200386 460.924713
v -33.035271 22.215305 460.924713
v -33.035271 22.215305 454.927155
v -33.035271 0.200386 454.927155
v -33.109241 0.200386 460.924713
v -33.148346 0.206580 460.918518
v -33.183624 0.224554 460.900543
v -33.211620 0.252551 460.872559
v -33.229595 0.287828 460.837250
v -33.235790 0.326933 460.798157
v -33.235790 22.088758 460.798157
v -33.229595 22.127863 460.837250
v -33.211620 22.163141 460.872559
v -33.183624 22.191137 460.900543
v -33.148346 22.209112 460.918518
v -33.109241 22.215305 460.924713
v -33.235790 22.088758 455.053711
v -33.229595 22.127863 455.014618
v -33.211620 22.163141 454.979309
v -33.183624 22.191137 454.951324
v -33.148346 22.209112 454.933350
v -33.109241 22.215305 454.927155
v -33.235790 0.326933 455.053711
v -33.229595 0.287828 455.014618
v -33.211620 0.252551 454.979309
v -33.183624 0.224554 454.951324
v -33.148346 0.206580 454.933350
v -33.109241 0.200386 454.927155
vt 0.001196 0.001992
vt 0.272543 0.001992
vt 0.272543 0.998008
vt 0.001196 0.998008
vt 0.568760 0.006624
vt 0.570529 0.004855
vt 0.570529 0.992958
vt 0.568760 0.991189
vt 0.308865 0.006624
vt 0.307097 0.004855
vt 0.572127 0.003259
vt 0.572127 0.994554
vt 0.307097 0.992958
vt 0.308865 0.991189
vt 0.305501 0.003259
vt 0.573394 0.001992
vt 0.573394 0.995821
vt 0.305501 0.994554
vt 0.304234 0.001992
vt 0.304234 0.995821
vt 0.583252 0.001992
vt 0.586599 0.001992
vt 0.586599 0.273339
vt 0.583252 0.273339
vt 0.581483 0.002271
vt 0.581483 0.273058
vt 0.579887 0.003084
vt 0.579887 0.272245
vt 0.595947 0.001992
vt 0.599294 0.001992
vt 0.599294 0.273339
vt 0.595947 0.273339
vt 0.594178 0.273060
vt 0.594178 0.002273
vt 0.592582 0.272247
vt 0.592582 0.003086
vt 0.278845 0.003086
vt 0.280441 0.002272
vt 0.280441 0.997728
vt 0.278845 0.996915
vt 0.282210 0.001992
vt 0.282210 0.998008
vt 0.285556 0.001992
vt 0.285556 0.998008
vt 0.294904 0.001992
vt 0.298251 0.001992
vt 0.298251 0.998008
vt 0.294904 0.998008
vt 0.293135 0.002272
vt 0.293135 0.997728
vt 0.291539 0.003085
vt 0.291539 0.996915
vn 1.000000 0.000000 0.000000
vn 1.000000 0.000000 0.000000
vn 1.000000 0.000000 0.000000
vn 1.000000 0.000000 0.000000
vn -0.999999 -0.000423 0.001597
vn -0.947673 -0.082543 0.308387
vn -0.947673 0.082542 0.308387
vn -0.999999 0.000423 0.001597
vn -0.765634 0.000000 0.643277
vn -0.765633 0.000000 0.643277
vn -0.541003 0.000000 0.841021
vn -0.541003 0.000000 0.841021
vn -0.278293 0.000000 0.960496
vn -0.278294 0.000000 0.960496
vn -0.051184 0.000000 0.998689
vn -0.051184 0.000000 0.998689
vn 0.000000 0.000000 1.000000
vn 0.000000 0.000000 1.000000
vn -0.051003 0.998699 0.000000
vn 0.000000 1.000000 0.000000
vn 0.000000 1.000000 0.000000
vn -0.051003 0.998699 0.000000
vn -0.050822 0.000000 -0.998708
vn 0.000000 0.000000 -1.000000
vn 0.000000 0.000000 -1.000000
vn -0.050821 0.000000 -0.998708
vn -0.051007 -0.998698 0.000000
vn 0.000000 -1.000000 0.000000
vn 0.000000 -1.000000 0.000000
vn -0.051007 -0.998698 0.000000
vn -0.999999 -0.000423 -0.001596
vn -0.999999 0.000423 -0.001596
vn -0.278063 0.960563 0.000000
vn -0.278063 0.960563 0.000000
vn -0.541282 0.840841 0.000000
vn -0.541282 0.840841 0.000000
vn -0.765425 0.643526 0.000000
vn -0.765425 0.643526 0.000000
vn -0.947631 0.082527 -0.308522
vn -0.278469 0.000000 -0.960445
vn -0.278469 0.000000 -0.960445
vn -0.542095 0.000000 -0.840317
vn -0.542095 0.000000 -0.840317
vn -0.765541 0.000000 -0.643387
vn -0.765542 0.000000 -0.643387
vn -0.947630 -0.082528 -0.308522
vn -0.278069 -0.960561 0.000000
vn -0.278069 -0.960561 0.000000
vn -0.541281 -0.840842 0.000000
vn -0.541281 -0.840842 0.000000
vn -0.765423 -0.643528 0.000000
vn -0.765423 -0.643528 0.000000
s off
g pCube85
usemtl initialShadingGroup
f 1/1/1 4/2/2 3/3/3 2/4/4
s 1
f 10/5/5 9/6/6 12/7/7 11/8/8
f 9/6/6 8/11/9 13/12/10 12/7/7
f 8/11/9 7/16/11 14/17/12 13/12/10
f 7/37/11 6/38/13 15/39/14 14/40/12
f 6/38/13 5/41/15 16/42/16 15/39/14
f 5/41/15 1/43/17 2/44/18 16/42/16
f 16/21/19 2/22/20 3/23/21 22/24/22
f 22/45/23 3/46/24 4/47/25 28/48/26
f 28/29/27 4/30/28 1/31/29 5/32/30
f 23/9/31 10/5/5 11/8/8 17/14/32
f 15/25/33 16/21/19 22/24/22 21/26/34
f 14/27/35 15/25/33 21/26/34 20/28/36
f 13/12/37 14/17/35 20/20/36 19/18/38
f 11/8/8 12/7/7 18/13/39 17/14/32
f 12/7/7 13/12/37 19/18/38 18/13/39
f 21/49/40 22/45/23 28/48/26 27/50/41
f 20/51/42 21/49/40 27/50/41 26/52/43
f 19/18/44 20/20/42 26/19/43 25/15/45
f 17/14/32 18/13/39 24/10/46 23/9/31
f 18/13/39 19/18/44 25/15/45 24/10/46
f 5/32/30 6/33/47 27/34/48 28/29/27
f 6/33/47 7/35/49 26/36/50 27/34/48
f 7/16/49 8/11/51 25/15/52 26/19/50
f 8/11/51 9/6/6 24/10/46 25/15/52
f 9/6/6 10/5/5 23/9/31 24/10/46
g default
v -33.035271 0.200386 454.822968
v -33.035271 22.215305 454.822968
v -33.035271 22.215305 448.825409
v -33.035271 0.200386 448.825409
v -33.109241 0.200386 454.822968
v -33.148346 0.206580 454.816772
v -33.183624 0.224554 454.798798
v -33.211620 0.252551 454.770813
v -33.229595 0.287828 454.735504
v -33.235790 0.326933 454.696411
v -33.235790 22.088758 454.696411
v -33.229595 22.127863 454.735504
v -33.211620 22.163141 454.770813
v -33.183624 22.191137 454.798798
v -33.148346 22.209112 454.816772
v -33.109241 22.215305 454.822968
v -33.235790 22.088758 448.951965
v -33.229595 22.127863 448.912872
v -33.211620 22.163141 448.877563
v -33.183624 22.191137 448.849579
v -33.148346 22.209112 448.831604
v -33.109241 22.215305 448.825409
v -33.235790 0.326933 448.951965
v -33.229595 0.287828 448.912872
v -33.211620 0.252551 448.877563
v -33.183624 0.224554 448.849579
v -33.148346 0.206580 448.831604
v -33.109241 0.200386 448.825409
vt 0.001196 0.001992
vt 0.272543 0.001992
vt 0.272543 0.998008
vt 0.001196 0.998008
vt 0.568760 0.006624
vt 0.570529 0.004855
vt 0.570529 0.992958
vt 0.568760 0.991189
vt 0.308865 0.006624
vt 0.307097 0.004855
vt 0.572127 0.003259
vt 0.572127 0.994554
vt 0.307097 0.992958
vt 0.308865 0.991189
vt 0.305501 0.003259
vt 0.573394 0.001992
vt 0.573394 0.995821
vt 0.305501 0.994554
vt 0.304234 0.001992
vt 0.304234 0.995821
vt 0.583252 0.001992
vt 0.586599 0.001992
vt 0.586599 0.273339
vt 0.583252 0.273339
vt 0.581483 0.002271
vt 0.581483 0.273058
vt 0.579887 0.003084
vt 0.579887 0.272245
vt 0.595947 0.001992
vt 0.599294 0.001992
vt 0.599294 0.273339
vt 0.595947 0.273339
vt 0.594178 0.273060
vt 0.594178 0.002273
vt 0.592582 0.272247
vt 0.592582 0.003086
vt 0.278845 0.003086
vt 0.280441 0.002272
vt 0.280441 0.997728
vt 0.278845 0.996915
vt 0.282210 0.001992
vt 0.282210 0.998008
vt 0.285556 0.001992
vt 0.285556 0.998008
vt 0.294904 0.001992
vt 0.298251 0.001992
vt 0.298251 0.998008
vt 0.294904 0.998008
vt 0.293135 0.002272
vt 0.293135 0.997728
vt 0.291539 0.003085
vt 0.291539 0.996915
vn 1.000000 0.000000 0.000000
vn 1.000000 0.000000 0.000000
vn 1.000000 0.000000 0.000000
vn 1.000000 0.000000 0.000000
vn -0.999999 -0.000423 0.001596
vn -0.947538 -0.082624 0.308781
vn -0.947538 0.082623 0.308781
vn -0.999999 0.000423 0.001596
vn -0.765732 0.000000 0.643160
vn -0.765731 0.000000 0.643161
vn -0.541822 0.000000 0.840494
vn -0.541822 0.000000 0.840493
vn -0.278060 0.000000 0.960564
vn -0.278060 0.000000 0.960564
vn -0.050817 0.000000 0.998708
vn -0.050818 0.000000 0.998708
vn 0.000000 0.000000 1.000000
vn 0.000000 0.000000 1.000000
vn -0.051003 0.998699 0.000000
vn 0.000000 1.000000 0.000000
vn 0.000000 1.000000 0.000000
vn -0.051003 0.998699 0.000000
vn -0.051182 0.000000 -0.998689
vn 0.000000 0.000000 -1.000000
vn 0.000000 0.000000 -1.000000
vn -0.051182 0.000000 -0.998689
vn -0.051007 -0.998698 0.000000
vn 0.000000 -1.000000 0.000000
vn 0.000000 -1.000000 0.000000
vn -0.051007 -0.998698 0.000000
vn -0.999999 -0.000423 -0.001596
vn -0.999999 0.000423 -0.001596
vn -0.278063 0.960563 0.000000
vn -0.278063 0.960563 0.000000
vn -0.541282 0.840841 0.000000
vn -0.541282 0.840841 0.000000
vn -0.765425 0.643525 0.000000
vn -0.765425 0.643525 0.000000
vn -0.947591 0.082589 -0.308626
vn -0.277881 0.000000 -0.960616
vn -0.277881 0.000000 -0.960616
vn -0.540709 0.000000 -0.841210
vn -0.540709 0.000000 -0.841210
vn -0.765730 0.000000 -0.643162
vn -0.765730 0.000000 -0.643162
vn -0.947591 -0.082591 -0.308627
vn -0.278069 -0.960561 0.000000
vn -0.278069 -0.960561 0.000000
vn -0.541281 -0.840842 0.000000
vn -0.541281 -0.840842 0.000000
vn -0.765423 -0.643528 0.000000
vn -0.765423 -0.643528 0.000000
s off
g pCube86
usemtl initialShadingGroup
f 29/53/53 32/54/54 31/55/55 30/56/56
s 1
f 38/57/57 37/58/58 40/59/59 39/60/60
f 37/58/58 36/63/61 41/64/62 40/59/59
f 36/63/61 35/68/63 42/69/64 41/64/62
f 35/89/63 34/90/65 43/91/66 42/92/64
f 34/90/65 33/93/67 44/94/68 43/91/66
f 33/93/67 29/95/69 30/96/70 44/94/68
f 44/73/71 30/74/72 31/75/73 50/76/74
f 50/97/75 31/98/76 32/99/77 56/100/78
f 56/81/79 32/82/80 29/83/81 33/84/82
f 51/61/83 38/57/57 39/60/60 45/66/84
f 43/77/85 44/73/71 50/76/74 49/78/86
f 42/79/87 43/77/85 49/78/86 48/80/88
f 41/64/89 42/69/87 48/72/88 47/70/90
f 39/60/60 40/59/59 46/65/91 45/66/84
f 40/59/59 41/64/89 47/70/90 46/65/91
f 49/101/92 50/97/75 56/100/78 55/102/93
f 48/103/94 49/101/92 55/102/93 54/104/95
f 47/70/96 48/72/94 54/71/95 53/67/97
f 45/66/84 46/65/91 52/62/98 51/61/83
f 46/65/91 47/70/96 53/67/97 52/62/98
f 33/84/82 34/85/99 55/86/100 56/81/79
f 34/85/99 35/87/101 54/88/102 55/86/100
f 35/68/101 36/63/103 53/67/104 54/71/102
f 36/63/103 37/58/58 52/62/98 53/67/104
f 37/58/58 38/57/57 51/61/83 52/62/98
