# This file uses centimeters as units for non-parametric coordinates.

mtllib shelf.mtl
g default
v -27.091932 9.837466 389.630933
v -27.091932 9.836931 389.631573
v -27.091932 9.837479 389.632031
v -26.447535 9.837479 389.632031
v -26.447535 9.836931 389.631573
v -26.447535 9.837466 389.630933
v -27.091932 8.951336 388.071094
v -26.447535 8.951336 388.071094
v -26.447535 8.951336 388.248523
v -27.091932 8.951336 388.248523
v -26.447535 9.451185 388.248523
v -27.091932 9.451185 388.248523
v -27.091932 9.628610 388.248523
v -27.091932 9.628610 388.221722
v -27.091932 9.451185 388.221722
v -26.447535 9.451185 388.221722
v -26.447535 9.628610 388.221722
v -26.447535 9.628610 388.248523
v -26.447535 11.223295 388.248523
v -27.091932 11.223295 388.248523
v -27.091932 9.628610 391.119189
v -27.091932 9.451185 391.119189
v -27.091932 9.834040 389.337823
v -26.447535 9.834040 389.337823
v -26.447535 9.656628 389.339899
v -27.091932 9.656628 389.339899
v -26.447535 9.451185 391.119189
v -27.091932 11.400720 388.248523
v -27.091932 11.400720 388.221722
v -27.091932 11.223295 388.221722
v -27.091932 13.430698 388.071094
v -26.447535 13.430698 388.071094
v -26.447535 9.628610 391.119189
v -27.091932 10.973694 388.275629
v -26.447535 10.973694 388.275629
v -27.091932 11.109659 388.389612
v -26.447535 11.109659 388.389612
v -26.447535 9.972896 389.745557
v -27.091932 9.972896 389.745557
v -26.447535 11.400720 388.248523
v -26.447535 11.223295 388.221722
v -26.447535 11.400720 388.221722
v -26.447535 9.677305 391.109186
v -27.091932 9.677305 391.109186
v -27.091932 8.951336 391.119189
v -26.447535 8.951336 391.119189
v -26.447535 8.951336 391.296613
v -27.091932 8.951336 391.296613
v -27.091932 9.854718 391.107117
v -26.447535 9.854718 391.107117
v -26.447535 12.594598 388.248523
v -27.091932 12.594598 388.248523
v -27.091932 9.451185 391.133624
v -27.091932 9.628610 391.133624
v -27.091932 12.772022 388.248523
v -27.091932 12.772022 388.221722
v -27.091932 12.594598 388.221722
v -27.091932 11.223295 391.119189
v -27.091932 11.400720 391.119189
v -26.447535 11.223295 391.119189
v -26.447535 9.628610 391.133624
v -26.447535 9.451185 391.133624
v -26.447535 11.400720 391.119189
v -26.447535 12.772022 388.248523
v -26.447535 12.594598 388.221722
v -26.447535 12.772022 388.221722
v -26.447535 13.430698 388.248523
v -27.091932 13.430698 388.248523
v -27.091932 12.594598 391.119189
v -27.091932 12.772022 391.119189
v -27.091932 11.223295 391.133624
v -27.091932 11.400720 391.133624
v -26.447535 12.594598 391.119189
v -26.447535 12.772022 391.119189
v -26.447535 13.430698 391.296613
v -27.091932 13.430698 391.296613
v -26.447535 11.400720 391.133624
v -26.447535 11.223295 391.133624
v -27.091932 12.594598 391.133624
v -27.091932 12.772022 391.133624
v -26.447535 12.772022 391.133624
v -26.447535 12.594598 391.133624
v -27.091932 13.430698 391.119189
v -26.447535 13.430698 391.119189
vt 0.336261 0.666880
vt 0.336202 0.666809
vt 0.336262 0.666758
vt 0.335881 0.699406
vt 0.316193 0.699176
vt 0.318488 0.502837
vt 0.338175 0.503066
vt 0.351290 0.654160
vt 0.477438 0.804631
vt 0.462350 0.817280
vt 0.169232 0.653358
vt 0.169171 0.653308
vt 0.169230 0.653237
vt 0.149162 0.620940
vt 0.168850 0.620710
vt 0.171145 0.817050
vt 0.151457 0.817280
vt 0.295319 0.502837
vt 0.310407 0.515485
vt 0.184259 0.665956
vt 0.021569 0.077150
vt 0.018595 0.077150
vt 0.018595 0.057461
vt 0.021569 0.057461
vt 0.001879 0.001992
vt 0.021569 0.001992
vt 0.021569 0.254114
vt 0.018595 0.254114
vt 0.018595 0.273803
vt 0.021569 0.273803
vt 0.021569 0.406289
vt 0.018595 0.406289
vt 0.018595 0.425978
vt 0.021569 0.425978
vt 0.021569 0.499072
vt 0.001879 0.499072
vt 0.340129 0.077150
vt 0.340129 0.057461
vt 0.341731 0.057461
vt 0.341731 0.077150
vt 0.340129 0.254114
vt 0.340129 0.273803
vt 0.340129 0.406289
vt 0.340129 0.425978
vt 0.340129 0.001992
vt 0.359818 0.001992
vt 0.359818 0.499072
vt 0.340129 0.499072
vt 0.341731 0.425978
vt 0.341731 0.406289
vt 0.341731 0.273803
vt 0.341731 0.254114
vt 0.704243 0.057461
vt 0.707217 0.057461
vt 0.707217 0.077150
vt 0.704243 0.077150
vt 0.704243 0.001992
vt 0.723933 0.001992
vt 0.723933 0.499072
vt 0.704243 0.499072
vt 0.704243 0.425978
vt 0.707217 0.425978
vt 0.707217 0.406289
vt 0.704243 0.406289
vt 0.704243 0.273803
vt 0.707217 0.273803
vt 0.707217 0.254114
vt 0.704243 0.254114
vt 0.385683 0.057461
vt 0.385683 0.077150
vt 0.384081 0.077150
vt 0.384081 0.057461
vt 0.385683 0.425978
vt 0.385683 0.406289
vt 0.385683 0.273803
vt 0.385683 0.254114
vt 0.365994 0.001992
vt 0.385683 0.001992
vt 0.384081 0.254114
vt 0.384081 0.273803
vt 0.384081 0.406289
vt 0.384081 0.425978
vt 0.385683 0.499072
vt 0.365994 0.499072
vt 0.711546 0.896671
vt 0.711546 0.825162
vt 0.731236 0.825162
vt 0.731236 0.896671
vt 0.869703 0.821397
vt 0.869703 0.502837
vt 0.941212 0.502837
vt 0.941212 0.821397
vt 0.863916 0.502837
vt 0.863916 0.821397
vt 0.792407 0.821397
vt 0.792407 0.502837
vt 0.825504 0.825162
vt 0.858031 0.825162
vt 0.858031 0.896671
vt 0.825504 0.896671
vt 0.071867 0.502837
vt 0.143376 0.502837
vt 0.143376 0.699176
vt 0.071867 0.699176
vt 0.864103 0.896671
vt 0.864103 0.825162
vt 0.883791 0.825162
vt 0.883791 0.896671
vt 0.158296 0.821044
vt 0.229805 0.821044
vt 0.229805 0.984736
vt 0.158296 0.984736
vt 0.786621 0.502837
vt 0.786621 0.821397
vt 0.715111 0.821397
vt 0.715111 0.502837
vt 0.709325 0.502837
vt 0.709325 0.821397
vt 0.637815 0.821397
vt 0.637815 0.502837
vt 0.834793 0.971945
vt 0.834793 0.900436
vt 0.854483 0.900436
vt 0.854483 0.971945
vt 0.632029 0.502837
vt 0.632029 0.821397
vt 0.560520 0.821397
vt 0.560520 0.502837
vt 0.554734 0.502837
vt 0.554734 0.821397
vt 0.483224 0.821397
vt 0.483224 0.502837
vt 0.809319 0.971945
vt 0.809319 0.900436
vt 0.829007 0.900436
vt 0.829007 0.971945
vt 0.737278 0.896671
vt 0.737278 0.825162
vt 0.792747 0.825162
vt 0.792747 0.896671
vt 0.073388 0.702940
vt 0.073388 0.879905
vt 0.001879 0.879905
vt 0.001879 0.702940
vt 0.799771 0.896671
vt 0.799771 0.825162
vt 0.819459 0.825162
vt 0.819459 0.896671
vt 0.729926 0.001992
vt 0.801436 0.001992
vt 0.801436 0.499072
vt 0.729926 0.499072
vt 0.466912 0.821044
vt 0.466912 0.953530
vt 0.395403 0.953530
vt 0.395403 0.821044
vt 0.885743 0.900435
vt 0.941212 0.900435
vt 0.941212 0.971945
vt 0.885743 0.971945
vt 0.860269 0.971945
vt 0.860269 0.900436
vt 0.879957 0.900436
vt 0.879957 0.971945
vt 0.624984 0.825162
vt 0.624984 0.898256
vt 0.553474 0.898256
vt 0.553474 0.825162
vt 0.150770 0.821044
vt 0.150770 0.998008
vt 0.079260 0.998008
vt 0.079260 0.821044
vt 0.808962 0.001992
vt 0.880471 0.001992
vt 0.880471 0.499072
vt 0.808962 0.499072
vt 0.545948 0.825162
vt 0.545948 0.957648
vt 0.474438 0.957648
vt 0.474438 0.825162
vt 0.632510 0.825162
vt 0.704019 0.825162
vt 0.704019 0.898256
vt 0.632510 0.898256
vt 0.316367 0.971444
vt 0.316367 0.821044
vt 0.387877 0.821044
vt 0.387877 0.971444
vt 0.316367 0.833693
vt 0.387877 0.833693
vt 0.237331 0.958916
vt 0.237331 0.971515
vt 0.308841 0.971515
vt 0.308841 0.958916
vt 0.237331 0.821044
vt 0.308841 0.821044
vn -1.000000 -0.000002 0.000000
vn -1.000000 -0.000002 0.000000
vn -1.000000 -0.000002 0.000000
vn 1.000000 -0.000001 0.000000
vn 1.000000 -0.000002 0.000000
vn 1.000000 -0.000001 0.000000
vn 0.000000 -1.000000 0.000000
vn 0.000000 -1.000000 0.000000
vn 0.000000 -1.000000 0.000000
vn 0.000000 -1.000000 0.000000
vn 0.000000 0.000000 1.000000
vn 0.000000 0.000000 1.000000
vn 0.000000 0.000000 1.000000
vn 0.000000 0.000000 1.000000
vn -1.000000 0.000000 0.000000
vn -1.000000 0.000000 0.000000
vn -1.000000 0.000000 0.000000
vn -1.000000 0.000000 0.000000
vn 1.000000 0.000000 0.000000
vn 1.000000 0.000000 0.000000
vn 1.000000 0.000000 0.000000
vn 1.000000 0.000000 0.000000
vn 0.000000 0.000000 1.000000
vn 0.000000 0.000000 1.000000
vn 0.000000 0.000000 1.000000
vn 0.000000 0.000000 1.000000
vn -1.000000 0.000000 0.000000
vn -1.000000 0.000000 0.000000
vn 0.000000 -0.011696 -0.999932
vn 0.000000 -0.011696 -0.999932
vn 0.000000 -0.011696 -0.999932
vn 0.000000 -0.011696 -0.999932
vn 0.000000 -1.000000 0.000000
vn 0.000000 -1.000000 0.000000
vn 0.000000 -1.000000 0.000000
vn 0.000000 -1.000000 0.000000
vn -1.000000 0.000000 0.000000
vn -1.000000 0.000000 0.000000
vn -1.000000 0.000000 0.000000
vn -1.000000 0.000000 0.000000
vn 0.000000 0.000000 -1.000000
vn 0.000000 0.000000 -1.000000
vn 0.000000 0.000000 -1.000000
vn 0.000000 0.000000 -1.000000
vn 0.000000 1.000000 0.000000
vn 0.000000 1.000000 0.000000
vn 0.000000 1.000000 0.000000
vn 0.000000 1.000000 0.000000
vn 0.000000 0.999932 -0.011686
vn 0.000000 0.999932 -0.011686
vn 0.000000 0.999932 -0.011686
vn 0.000000 0.999932 -0.011686
vn 0.000000 -0.766325 -0.642454
vn 0.000000 -0.766325 -0.642454
vn 0.000000 -0.766325 -0.642454
vn 0.000000 -0.766325 -0.642454
vn 0.000000 0.642441 -0.766335
vn 0.000000 0.642441 -0.766335
vn 0.000000 0.642441 -0.766335
vn 0.000000 0.642441 -0.766335
vn 1.000000 0.000000 0.000000
vn 1.000000 0.000000 0.000000
vn 0.000000 -0.642445 0.766331
vn 0.000000 -0.642445 0.766331
vn 0.000000 -0.642445 0.766331
vn 0.000000 -0.642445 0.766331
vn 0.000000 0.766325 0.642453
vn 0.000000 0.766325 0.642453
vn 0.000000 0.766325 0.642453
vn 0.000000 0.766325 0.642453
vn 1.000000 0.000000 0.000000
vn 1.000000 0.000000 0.000000
vn 1.000000 0.000000 0.000000
vn 1.000000 0.000000 0.000000
vn 0.000000 -0.999932 0.011686
vn 0.000000 -0.999932 0.011686
vn 0.000000 -0.999932 0.011686
vn 0.000000 -0.999932 0.011686
vn 0.000000 -1.000000 0.000000
vn 0.000000 -1.000000 0.000000
vn 0.000000 -1.000000 0.000000
vn 0.000000 -1.000000 0.000000
vn 0.000000 0.999932 -0.011686
vn 0.000000 0.999932 -0.011686
vn 0.000000 0.999932 -0.011686
vn 0.000000 0.999932 -0.011686
vn 0.000000 0.000000 1.000000
vn 0.000000 0.000000 1.000000
vn 0.000000 0.000000 1.000000
vn 0.000000 0.000000 1.000000
vn 0.000000 0.000000 -1.000000
vn 0.000000 0.000000 -1.000000
vn 0.000000 0.000000 -1.000000
vn 0.000000 0.000000 -1.000000
vn -1.000000 0.000000 0.000000
vn -1.000000 0.000000 0.000000
vn -1.000000 0.000000 0.000000
vn -1.000000 0.000000 0.000000
vn -1.000000 0.000000 0.000000
vn -1.000000 0.000000 0.000000
vn -1.000000 0.000000 0.000000
vn -1.000000 0.000000 0.000000
vn 0.000000 0.011662 0.999932
vn 0.000000 0.011662 0.999932
vn 0.000000 0.011662 0.999932
vn 0.000000 0.011662 0.999932
vn 0.000000 -1.000000 0.000000
vn 0.000000 -1.000000 0.000000
vn 0.000000 -1.000000 0.000000
vn 0.000000 -1.000000 0.000000
vn 1.000000 0.000000 0.000000
vn 1.000000 0.000000 0.000000
vn 0.000000 1.000000 0.000000
vn 0.000000 1.000000 0.000000
vn 0.000000 1.000000 0.000000
vn 0.000000 1.000000 0.000000
vn 1.000000 0.000000 0.000000
vn 1.000000 0.000000 0.000000
vn 1.000000 0.000000 0.000000
vn 1.000000 0.000000 0.000000
vn 1.000000 0.000000 0.000000
vn 1.000000 0.000000 0.000000
vn 0.000000 0.000000 1.000000
vn 0.000000 0.000000 1.000000
vn 0.000000 0.000000 1.000000
vn 0.000000 0.000000 1.000000
vn 0.000000 0.000000 -1.000000
vn 0.000000 0.000000 -1.000000
vn 0.000000 0.000000 -1.000000
vn 0.000000 0.000000 -1.000000
vn 0.000000 1.000000 0.000000
vn 0.000000 1.000000 0.000000
vn 0.000000 1.000000 0.000000
vn 0.000000 1.000000 0.000000
vn -1.000000 0.000000 0.000000
vn -1.000000 0.000000 0.000000
vn -1.000000 0.000000 0.000000
vn -1.000000 0.000000 0.000000
vn 0.000000 -1.000000 0.000000
vn 0.000000 -1.000000 0.000000
vn 0.000000 -1.000000 0.000000
vn 0.000000 -1.000000 0.000000
vn 0.000000 1.000000 0.000000
vn 0.000000 1.000000 0.000000
vn 0.000000 1.000000 0.000000
vn 0.000000 1.000000 0.000000
vn 0.000000 0.000000 1.000000
vn 0.000000 0.000000 1.000000
vn 0.000000 0.000000 1.000000
vn 0.000000 0.000000 1.000000
vn 1.000000 0.000000 0.000000
vn 1.000000 0.000000 0.000000
vn 1.000000 0.000000 0.000000
vn 1.000000 0.000000 0.000000
vn 0.000000 0.000000 -1.000000
vn 0.000000 0.000000 -1.000000
vn 0.000000 0.000000 -1.000000
vn 0.000000 0.000000 -1.000000
vn -1.000000 0.000000 0.000000
vn -1.000000 0.000000 0.000000
vn 1.000000 0.000000 0.000000
vn 1.000000 0.000000 0.000000
vn 0.000000 0.000000 -1.000000
vn 0.000000 0.000000 -1.000000
vn 0.000000 0.000000 -1.000000
vn 0.000000 0.000000 -1.000000
vn 0.000000 1.000000 0.000000
vn 0.000000 1.000000 0.000000
vn 0.000000 1.000000 0.000000
vn 0.000000 1.000000 0.000000
vn -1.000000 -0.000002 0.000000
vn -1.000000 -0.000002 0.000000
vn -1.000000 -0.000002 0.000000
vn 1.000000 -0.000000 0.000000
vn 1.000000 -0.000000 0.000000
vn 1.000000 -0.000000 0.000000
vn -1.000000 -0.000002 0.000000
vn -1.000000 -0.000002 0.000000
vn -1.000000 -0.000002 0.000000
vn -1.000000 -0.000002 0.000000
vn 1.000000 -0.000002 0.000000
vn 1.000000 -0.000002 0.000000
vn 1.000000 -0.000002 0.000000
vn 1.000000 -0.000002 0.000000
vn -1.000000 0.000000 0.000000
vn -1.000000 0.000000 0.000000
vn -1.000000 0.000000 0.000000
vn -1.000000 0.000000 0.000000
vn 1.000000 0.000000 0.000000
vn 1.000000 0.000000 0.000000
vn 1.000000 0.000000 0.000000
vn 1.000000 0.000000 0.000000
vn -1.000000 0.000000 0.000000
vn -1.000000 0.000000 0.000000
vn -1.000000 0.000000 0.000000
vn -1.000000 0.000000 0.000000
vn 1.000000 0.000000 0.000000
vn 1.000000 0.000000 0.000000
vn 1.000000 0.000000 0.000000
vn 1.000000 0.000000 0.000000
s 1
g pCube60
usemtl standardSurface25SG
f 1/1/1 2/2/2 3/3/3
s 2
f 4/11/4 5/12/5 6/13/6
s off
f 7/85/7 8/86/8 9/87/9 10/88/10
f 10/137/11 9/138/12 11/139/13 12/140/14
s 3
f 13/21/15 14/22/16 15/23/17 12/24/18
s 4
f 11/53/19 16/54/20 17/55/21 18/56/22
s off
f 18/141/23 19/142/24 20/143/25 13/144/26
s 3
f 21/37/27 13/21/15 12/24/18 22/38/28
s off
f 23/145/29 24/146/30 25/147/31 26/148/32
f 22/89/33 12/90/34 11/91/35 27/92/36
s 3
f 20/27/37 28/30/38 29/29/39 30/28/40
s off
f 31/149/41 32/150/42 8/151/43 7/152/44
f 33/93/45 18/94/46 13/95/47 21/96/48
f 6/97/49 24/98/50 23/99/51 1/100/52
f 1/185/53 34/186/54 35/187/55 6/188/56
f 36/189/57 37/190/58 35/187/59 34/186/60
s 4
f 27/69/61 11/53/19 18/56/22 33/70/62
s off
f 4/191/63 38/192/64 39/193/65 3/194/66
f 39/193/67 38/192/68 37/195/69 36/196/70
s 4
f 40/65/71 19/68/72 41/67/73 42/66/74
s off
f 26/101/75 25/102/76 43/103/77 44/104/78
f 45/105/79 46/106/80 47/107/81 48/108/82
f 49/109/83 50/110/84 4/111/85 3/112/86
f 40/153/87 51/154/88 52/155/89 28/156/90
f 27/157/91 46/158/92 45/159/93 22/160/94
s 3
f 22/38/28 53/39/95 54/40/96 21/37/27
f 52/31/97 55/34/98 56/33/99 57/32/100
f 20/27/37 58/41/101 59/42/102 28/30/38
s off
f 44/161/103 43/162/104 50/163/105 49/164/106
f 19/113/107 60/114/108 58/115/109 20/116/110
s 4
f 33/70/62 61/71/111 62/72/112 27/69/61
s off
f 63/117/113 40/118/114 28/119/115 59/120/116
s 4
f 64/61/117 51/64/118 65/63/119 66/62/120
f 40/65/71 63/75/121 60/76/122 19/68/72
s off
f 64/165/123 67/166/124 68/167/125 55/168/126
f 60/169/127 33/170/128 21/171/129 58/172/130
f 68/121/131 67/122/132 32/123/133 31/124/134
s 3
f 52/31/97 69/43/135 70/44/136 55/34/98
f 59/42/102 58/41/101 71/52/137 72/51/138
s off
f 51/125/139 73/126/140 69/127/141 52/128/142
f 74/129/143 64/130/144 55/131/145 70/132/146
f 48/173/147 47/174/148 75/175/149 76/176/150
s 4
f 64/61/117 74/73/151 73/74/152 51/64/118
f 60/76/122 63/75/121 77/80/153 78/79/154
s off
f 73/177/155 63/178/156 59/179/157 69/180/158
s 3
f 70/44/136 69/43/135 79/50/159 80/49/160
s 4
f 73/74/152 74/73/151 81/82/161 82/81/162
s off
f 83/181/163 84/182/164 74/183/165 70/184/166
f 76/133/167 75/134/168 84/135/169 83/136/170
s 1
f 3/3/3 39/8/171 36/9/172 34/10/173 1/1/1
s 2
f 6/13/6 35/18/174 37/19/175 38/20/176 4/11/4
s 1
f 23/4/177 26/5/178 44/6/179 49/7/180 3/3/3 2/2/2 1/1/1
s 2
f 25/14/181 24/15/182 6/13/6 5/12/5 4/11/4 50/16/183 43/17/184
s 3
f 7/25/185 10/26/186 12/24/18 15/23/17 14/22/16 13/21/15 20/27/37 30/28/40 29/29/39 28/30/38 52/31/97 57/32/100 56/33/99 55/34/98 68/35/187 31/36/188
s 4
f 9/57/189 8/58/190 32/59/191 67/60/192 64/61/117 66/62/120 65/63/119 51/64/118 40/65/71 42/66/74 41/67/73 19/68/72 18/56/22 17/55/21 16/54/20 11/53/19
s 3
f 45/45/193 48/46/194 76/47/195 83/48/196 70/44/136 80/49/160 79/50/159 69/43/135 59/42/102 72/51/138 71/52/137 58/41/101 21/37/27 54/40/96 53/39/95 22/38/28
s 4
f 47/77/197 46/78/198 27/69/61 62/72/112 61/71/111 33/70/62 60/76/122 78/79/154 77/80/153 63/75/121 73/74/152 82/81/162 81/82/161 74/73/151 84/83/199 75/84/200
