# This file uses centimeters as units for non-parametric coordinates.

mtllib back_wall_v2.mtl
g default
v -22.203173 28.722847 281.697543
v -22.003202 28.719431 281.697543
v -22.204847 28.850433 281.697543
v -22.005033 28.859091 281.697543
v -22.214217 28.977687 281.697543
v -22.015291 28.998387 281.697543
v -22.231248 29.104143 281.697543
v -22.033934 29.136810 281.697543
v -22.255881 29.229341 281.697543
v -22.060897 29.273857 281.697543
v -22.288022 29.352823 281.697543
v -22.096082 29.409024 281.697543
v -22.327559 29.474142 281.697543
v -22.139359 29.541824 281.697543
v -22.374344 29.592854 281.697543
v -22.190572 29.671769 281.697543
v -22.428208 29.708525 281.697543
v -22.249532 29.798387 281.697543
v -22.488954 29.820735 281.697543
v -22.316026 29.921216 281.697543
v -22.556360 29.929075 281.697543
v -22.389813 30.039808 281.697543
v -22.630183 30.033150 281.697543
v -22.470620 30.153731 281.697543
v -22.710151 30.132580 281.697543
v -22.558156 30.262571 281.697543
v -22.795974 30.227003 281.697543
v -22.652100 30.365930 281.697543
v -22.887338 30.316075 281.697543
v -22.752111 30.463430 281.697543
v -22.983910 30.399470 281.697543
v -22.857823 30.554717 281.697543
v -23.085341 30.476887 281.697543
v -22.968851 30.639460 281.697543
v -23.191258 30.548040 281.697543
v -23.084791 30.717348 281.697543
v -23.301274 30.612673 281.697543
v -23.205219 30.788097 281.697543
v -23.414991 30.670548 281.697543
v -23.329699 30.851449 281.697543
v -23.531995 30.721456 281.697543
v -23.457774 30.907173 281.697543
v -23.651855 30.765209 281.697543
v -23.588978 30.955068 281.697543
v -23.774139 30.801649 281.697543
v -23.722832 30.994957 281.697543
v -23.898399 30.830644 281.697543
v -23.858852 31.026695 281.697543
v -24.024184 30.852088 281.697543
v -23.996538 31.050167 281.697543
v -24.151030 30.865902 281.697543
v -24.135392 31.065289 281.697543
v -24.278481 30.872035 281.697543
v -24.274902 31.072002 281.697543
v -24.278481 30.872035 258.684878
v -24.274902 31.072002 258.684878
v -24.151030 30.865902 258.684878
v -24.135392 31.065289 258.684878
v -24.024184 30.852088 258.684878
v -23.996540 31.050169 258.684878
v -23.898399 30.830644 258.684878
v -23.858852 31.026695 258.684878
v -23.774139 30.801649 258.684878
v -23.722834 30.994957 258.684878
v -23.651855 30.765209 258.684878
v -23.588978 30.955068 258.684878
v -23.531995 30.721456 258.684878
v -23.457774 30.907173 258.684878
v -23.414991 30.670548 258.684878
v -23.329699 30.851449 258.684878
v -23.301274 30.612673 258.684878
v -23.205219 30.788097 258.684878
v -23.191258 30.548040 258.684878
v -23.084791 30.717348 258.684878
v -23.085341 30.476887 258.684878
v -22.968851 30.639460 258.684878
v -22.983910 30.399470 258.684878
v -22.857824 30.554719 258.684878
v -22.887338 30.316075 258.684878
v -22.752111 30.463430 258.684878
v -22.795974 30.227003 258.684878
v -22.652101 30.365930 258.684878
v -22.710151 30.132580 258.684878
v -22.558157 30.262571 258.684878
v -22.630183 30.033150 258.684878
v -22.470620 30.153731 258.684878
v -22.556360 29.929075 258.684878
v -22.389813 30.039808 258.684878
v -22.488954 29.820735 258.684878
v -22.316027 29.921216 258.684878
v -22.428208 29.708525 258.684878
v -22.249532 29.798387 258.684878
v -22.374344 29.592854 258.684878
v -22.190572 29.671769 258.684878
v -22.327559 29.474142 258.684878
v -22.139359 29.541824 258.684878
v -22.288022 29.352823 258.684878
v -22.096082 29.409024 258.684878
v -22.255880 29.229341 258.684878
v -22.060897 29.273857 258.684878
v -22.231248 29.104143 258.684878
v -22.033934 29.136810 258.684878
v -22.214217 28.977687 258.684878
v -22.015291 28.998387 258.684878
v -22.204847 28.850433 258.684878
v -22.005033 28.859091 258.684878
v -22.203173 28.722847 258.684878
v -22.003202 28.719431 258.684878
v -22.203173 24.419349 258.684878
v -22.003201 24.415933 258.684878
v -22.003201 24.415933 281.697543
v -22.203173 24.419349 281.697543
v -32.273359 30.872035 281.697543
v -32.269779 31.072003 281.697543
v -32.269779 31.072003 258.684878
v -32.273359 30.872035 258.684878
vt 0.130810 0.627086
vt 0.130810 0.001817
vt 0.134604 0.001817
vt 0.134604 0.627086
vt 0.013881 0.627086
vt 0.013881 0.001817
vt 0.138389 0.001817
vt 0.138389 0.627086
vt 0.142150 0.001817
vt 0.142150 0.627086
vt 0.145874 0.001817
vt 0.145874 0.627086
vt 0.149546 0.001817
vt 0.149546 0.627086
vt 0.153154 0.001817
vt 0.153154 0.627086
vt 0.156685 0.001817
vt 0.156685 0.627086
vt 0.160125 0.001817
vt 0.160125 0.627086
vt 0.163463 0.001817
vt 0.163463 0.627086
vt 0.166685 0.001817
vt 0.166685 0.627086
vt 0.169780 0.001817
vt 0.169780 0.627086
vt 0.172738 0.001817
vt 0.172738 0.627086
vt 0.175546 0.001817
vt 0.175546 0.627086
vt 0.178195 0.001817
vt 0.178195 0.627086
vt 0.180675 0.001817
vt 0.180675 0.627086
vt 0.182978 0.001817
vt 0.182978 0.627086
vt 0.185094 0.001817
vt 0.185094 0.627086
vt 0.187017 0.001817
vt 0.187017 0.627086
vt 0.563477 0.627086
vt 0.563477 0.001817
vt 0.566943 0.001817
vt 0.566943 0.627086
vt 0.446548 0.627086
vt 0.446548 0.001817
vt 0.570401 0.001817
vt 0.570401 0.627086
vt 0.573837 0.001817
vt 0.573837 0.627086
vt 0.577239 0.001817
vt 0.577239 0.627086
vt 0.580594 0.001817
vt 0.580594 0.627086
vt 0.583890 0.001817
vt 0.583890 0.627086
vt 0.587116 0.001817
vt 0.587116 0.627086
vt 0.590258 0.001817
vt 0.590258 0.627086
vt 0.593307 0.001817
vt 0.593307 0.627086
vt 0.596251 0.001817
vt 0.596251 0.627086
vt 0.599079 0.001817
vt 0.599079 0.627086
vt 0.601780 0.001817
vt 0.601780 0.627086
vt 0.604346 0.001817
vt 0.604346 0.627086
vt 0.606766 0.001817
vt 0.606766 0.627086
vt 0.609032 0.001817
vt 0.609032 0.627086
vt 0.611135 0.001817
vt 0.611135 0.627086
vt 0.613069 0.001817
vt 0.613069 0.627086
vt 0.614825 0.001817
vt 0.614825 0.627086
vt 0.873369 0.001817
vt 0.878802 0.001817
vt 0.878802 0.627086
vt 0.873369 0.627086
vt 0.001992 0.001817
vt 0.007425 0.001817
vt 0.007425 0.627086
vt 0.001992 0.627086
vt 0.439474 0.001817
vt 0.439474 0.627086
vt 0.436092 0.627086
vt 0.436092 0.001817
vt 0.432612 0.627086
vt 0.432612 0.001817
vt 0.429047 0.627086
vt 0.429047 0.001817
vt 0.425410 0.627086
vt 0.425410 0.001817
vt 0.421715 0.627086
vt 0.421715 0.001817
vt 0.417974 0.627086
vt 0.417974 0.001817
vt 0.414201 0.627086
vt 0.414201 0.001817
vt 0.410410 0.627086
vt 0.410410 0.001817
vt 0.193184 0.627086
vt 0.193184 0.001817
vt 0.865731 0.001817
vt 0.865731 0.627086
vt 0.862641 0.627086
vt 0.862641 0.001817
vt 0.859462 0.627086
vt 0.859462 0.001817
vt 0.856206 0.627086
vt 0.856206 0.001817
vt 0.852883 0.627086
vt 0.852883 0.001817
vt 0.849507 0.627086
vt 0.849507 0.001817
vt 0.846089 0.627086
vt 0.846089 0.001817
vt 0.842643 0.627086
vt 0.842643 0.001817
vt 0.839180 0.627086
vt 0.839180 0.001817
vt 0.621954 0.627086
vt 0.621954 0.001817
vt 0.934180 0.636511
vt 0.934087 0.631077
vt 0.937882 0.631127
vt 0.937647 0.636556
vt 0.817251 0.636510
vt 0.817158 0.631077
vt 0.941666 0.631406
vt 0.941104 0.636811
vt 0.945428 0.631912
vt 0.944540 0.637273
vt 0.949151 0.632645
vt 0.947942 0.637943
vt 0.952824 0.633601
vt 0.951297 0.638816
vt 0.956432 0.634777
vt 0.954593 0.639890
vt 0.959963 0.636168
vt 0.957819 0.641161
vt 0.963403 0.637770
vt 0.960961 0.642625
vt 0.966740 0.639577
vt 0.964010 0.644275
vt 0.969963 0.641582
vt 0.966954 0.646107
vt 0.973058 0.643777
vt 0.969782 0.648113
vt 0.976015 0.646156
vt 0.972483 0.650285
vt 0.978823 0.648708
vt 0.975049 0.652617
vt 0.981473 0.651425
vt 0.977469 0.655100
vt 0.983953 0.654298
vt 0.979735 0.657724
vt 0.986256 0.657314
vt 0.981838 0.660480
vt 0.988372 0.660465
vt 0.983772 0.663357
vt 0.990294 0.663737
vt 0.985528 0.666347
vt 0.992015 0.667119
vt 0.987100 0.669436
vt 0.993530 0.670599
vt 0.988483 0.672615
vt 0.994831 0.674164
vt 0.989672 0.675872
vt 0.995915 0.677801
vt 0.990662 0.679195
vt 0.996777 0.681496
vt 0.991450 0.682571
vt 0.997415 0.685237
vt 0.992033 0.685989
vt 0.997826 0.689010
vt 0.992408 0.689435
vt 0.998008 0.692801
vt 0.992575 0.692898
vt 0.998008 0.910027
vt 0.992575 0.910124
vt 0.635607 0.692898
vt 0.630173 0.692801
vt 0.630356 0.689010
vt 0.635773 0.689435
vt 0.635606 0.910124
vt 0.630173 0.910027
vt 0.630767 0.685238
vt 0.636148 0.685989
vt 0.631404 0.681496
vt 0.636731 0.682571
vt 0.632267 0.677801
vt 0.637519 0.679195
vt 0.633350 0.674164
vt 0.638509 0.675872
vt 0.634652 0.670599
vt 0.639698 0.672616
vt 0.636166 0.667119
vt 0.641081 0.669436
vt 0.637887 0.663737
vt 0.642654 0.666347
vt 0.639809 0.660465
vt 0.644410 0.663357
vt 0.641926 0.657314
vt 0.646343 0.660480
vt 0.644228 0.654298
vt 0.648446 0.657724
vt 0.646708 0.651425
vt 0.650712 0.655100
vt 0.649358 0.648708
vt 0.653132 0.652617
vt 0.652166 0.646156
vt 0.655698 0.650285
vt 0.655123 0.643777
vt 0.658399 0.648113
vt 0.658219 0.641582
vt 0.661227 0.646107
vt 0.661441 0.639577
vt 0.664171 0.644275
vt 0.664778 0.637770
vt 0.667220 0.642625
vt 0.668218 0.636168
vt 0.670363 0.641161
vt 0.671749 0.634777
vt 0.673588 0.639890
vt 0.675357 0.633601
vt 0.676884 0.638816
vt 0.679030 0.632645
vt 0.680240 0.637943
vt 0.682754 0.631912
vt 0.683641 0.637273
vt 0.686515 0.631406
vt 0.687077 0.636811
vt 0.690299 0.631127
vt 0.690535 0.636556
vt 0.694094 0.631077
vt 0.694001 0.636511
vt 0.811023 0.631077
vt 0.810930 0.636510
vn 0.000023 0.000000 1.000000
vn 0.000023 0.000000 1.000000
vn 0.000011 0.000000 1.000000
vn 0.000011 0.000000 1.000000
vn -0.000023 0.000000 1.000000
vn -0.000023 0.000000 1.000000
vn -0.000011 0.000000 1.000000
vn -0.000011 0.000000 1.000000
vn 0.000011 0.000000 1.000000
vn 0.000011 0.000000 1.000000
vn 0.000000 0.000000 1.000000
vn 0.000000 0.000000 1.000000
vn 0.000011 0.000000 1.000000
vn 0.000011 0.000000 1.000000
vn 0.000011 0.000000 1.000000
vn 0.000011 0.000000 1.000000
vn -0.000023 0.000000 1.000000
vn -0.000023 0.000000 1.000000
vn -0.000011 0.000000 1.000000
vn -0.000011 0.000000 1.000000
vn 0.000011 0.000000 1.000000
vn 0.000011 0.000000 1.000000
vn 0.000000 0.000000 1.000000
vn 0.000000 0.000000 1.000000
vn -0.000023 0.000000 1.000000
vn -0.000023 0.000000 1.000000
vn -0.000011 0.000000 1.000000
vn -0.000011 0.000000 1.000000
vn 0.000023 0.000000 1.000000
vn 0.000023 0.000000 1.000000
vn -0.000011 0.000000 1.000000
vn -0.000011 0.000000 1.000000
vn 0.000006 0.000000 1.000000
vn 0.000006 0.000000 1.000000
vn 0.000011 0.000000 1.000000
vn 0.000011 0.000000 1.000000
vn -0.000034 0.000000 1.000000
vn -0.000034 0.000000 1.000000
vn -0.000017 0.000000 1.000000
vn -0.000017 0.000000 1.000000
vn 0.000011 0.000000 1.000000
vn 0.000011 0.000000 1.000000
vn 0.000011 0.000000 1.000000
vn 0.000011 0.000000 1.000000
vn -0.000011 0.000000 1.000000
vn -0.000011 0.000000 1.000000
vn -0.000006 0.000000 1.000000
vn -0.000006 0.000000 1.000000
vn 0.000024 0.000000 1.000000
vn 0.000024 0.000000 1.000000
vn 0.000009 0.000000 1.000000
vn 0.000009 0.000000 1.000000
vn -0.000020 0.000000 1.000000
vn -0.000020 0.000000 1.000000
vn -0.000008 0.000000 -1.000000
vn -0.000008 0.000000 -1.000000
vn 0.000002 0.000000 -1.000000
vn 0.000002 0.000000 -1.000000
vn 0.000011 0.000000 -1.000000
vn 0.000011 0.000000 -1.000000
vn 0.000000 0.000000 -1.000000
vn -0.000000 0.000000 -1.000000
vn -0.000004 0.000000 -1.000000
vn -0.000004 0.000000 -1.000000
vn 0.000000 0.000000 -1.000000
vn 0.000000 0.000000 -1.000000
vn -0.000009 0.000000 -1.000000
vn -0.000009 0.000000 -1.000000
vn -0.000003 0.000000 -1.000000
vn -0.000003 0.000000 -1.000000
vn 0.000006 0.000000 -1.000000
vn 0.000006 0.000000 -1.000000
vn -0.000006 0.000000 -1.000000
vn -0.000006 0.000000 -1.000000
vn -0.000006 0.000000 -1.000000
vn -0.000006 0.000000 -1.000000
vn 0.000006 0.000000 -1.000000
vn 0.000006 0.000000 -1.000000
vn 0.000006 0.000000 -1.000000
vn 0.000006 0.000000 -1.000000
vn -0.000006 0.000000 -1.000000
vn -0.000006 0.000000 -1.000000
vn 0.000006 0.000000 -1.000000
vn 0.000006 0.000000 -1.000000
vn 0.000006 0.000000 -1.000000
vn 0.000006 0.000000 -1.000000
vn -0.000006 0.000000 -1.000000
vn -0.000006 0.000000 -1.000000
vn 0.000000 0.000000 -1.000000
vn 0.000000 0.000000 -1.000000
vn 0.000000 0.000000 -1.000000
vn 0.000000 0.000000 -1.000000
vn 0.000006 0.000000 -1.000000
vn 0.000006 0.000000 -1.000000
vn 0.000006 0.000000 -1.000000
vn 0.000006 0.000000 -1.000000
vn 0.000011 0.000000 -1.000000
vn 0.000011 0.000000 -1.000000
vn 0.000000 0.000000 -1.000000
vn -0.000000 0.000000 -1.000000
vn -0.000023 0.000000 -1.000000
vn -0.000023 0.000000 -1.000000
vn -0.000011 0.000000 -1.000000
vn -0.000011 0.000000 -1.000000
vn 0.000000 0.000000 -1.000000
vn 0.000000 0.000000 -1.000000
vn 0.000000 0.000000 -1.000000
vn 0.000000 0.000000 -1.000000
vn -0.017082 -0.999854 0.000000
vn -0.017082 -0.999854 0.000000
vn -0.017082 -0.999854 0.000000
vn -0.017082 -0.999854 0.000000
vn 0.999914 0.013104 0.000000
vn 0.999914 0.013104 0.000000
vn 0.999062 0.043295 0.000000
vn 0.999062 0.043295 0.000000
vn 0.994629 0.103506 0.000000
vn 0.994629 0.103506 0.000000
vn 0.986571 0.163335 0.000000
vn 0.986571 0.163335 0.000000
vn 0.974915 0.222579 0.000000
vn 0.974915 0.222579 0.000000
vn 0.959707 0.281004 0.000000
vn 0.959707 0.281004 0.000000
vn 0.941000 0.338407 0.000000
vn 0.941000 0.338407 0.000000
vn 0.918863 0.394576 0.000000
vn 0.918863 0.394576 0.000000
vn 0.893377 0.449308 -0.000000
vn 0.893377 0.449308 -0.000000
vn 0.864631 0.502407 -0.000000
vn 0.864631 0.502407 -0.000000
vn 0.832739 0.553665 -0.000000
vn 0.832739 0.553665 -0.000000
vn 0.797810 0.602910 -0.000000
vn 0.797810 0.602910 -0.000000
vn 0.759971 0.649957 -0.000000
vn 0.759971 0.649957 -0.000000
vn 0.719363 0.694634 -0.000000
vn 0.719363 0.694634 -0.000000
vn 0.676131 0.736782 0.000000
vn 0.676131 0.736782 0.000000
vn 0.630438 0.776239 0.000000
vn 0.630438 0.776239 0.000000
vn 0.582447 0.812869 0.000000
vn 0.582447 0.812869 0.000000
vn 0.532332 0.846536 0.000000
vn 0.532332 0.846536 0.000000
vn 0.480273 0.877119 0.000000
vn 0.480273 0.877119 0.000000
vn 0.426463 0.904505 0.000000
vn 0.426463 0.904505 0.000000
vn 0.371105 0.928591 0.000000
vn 0.371105 0.928591 0.000000
vn 0.314392 0.949293 0.000000
vn 0.314392 0.949293 0.000000
vn 0.256528 0.966537 -0.000000
vn 0.256528 0.966537 -0.000000
vn 0.197733 0.980256 0.000000
vn 0.197733 0.980256 0.000000
vn 0.138218 0.990402 0.000000
vn 0.138218 0.990402 0.000000
vn 0.078196 0.996938 0.000000
vn 0.078196 0.996938 0.000000
vn 0.048064 0.998844 0.000000
vn 0.048064 0.998844 0.000000
vn -0.999914 -0.013110 0.000000
vn -0.999914 -0.013110 0.000000
vn -0.999062 -0.043294 0.000000
vn -0.999062 -0.043294 0.000000
vn -0.994629 -0.103503 0.000000
vn -0.994629 -0.103503 0.000000
vn -0.986571 -0.163334 -0.000000
vn -0.986571 -0.163334 -0.000000
vn -0.974915 -0.222577 -0.000000
vn -0.974915 -0.222577 -0.000000
vn -0.959706 -0.281004 -0.000000
vn -0.959706 -0.281004 -0.000000
vn -0.940999 -0.338409 0.000000
vn -0.940999 -0.338409 0.000000
vn -0.918862 -0.394579 0.000000
vn -0.918862 -0.394579 0.000000
vn -0.893375 -0.449311 0.000000
vn -0.893375 -0.449311 0.000000
vn -0.864634 -0.502402 0.000000
vn -0.864634 -0.502402 0.000000
vn -0.832739 -0.553665 0.000000
vn -0.832739 -0.553665 0.000000
vn -0.797808 -0.602912 0.000000
vn -0.797808 -0.602912 0.000000
vn -0.759971 -0.649957 0.000000
vn -0.759971 -0.649957 0.000000
vn -0.719363 -0.694634 0.000000
vn -0.719363 -0.694634 0.000000
vn -0.676134 -0.736779 0.000000
vn -0.676134 -0.736779 0.000000
vn -0.630439 -0.776238 0.000000
vn -0.630439 -0.776238 0.000000
vn -0.582444 -0.812871 0.000000
vn -0.582444 -0.812871 0.000000
vn -0.532329 -0.846537 0.000000
vn -0.532329 -0.846537 0.000000
vn -0.480274 -0.877118 0.000000
vn -0.480274 -0.877118 0.000000
vn -0.426466 -0.904503 0.000000
vn -0.426466 -0.904503 0.000000
vn -0.371107 -0.928590 0.000000
vn -0.371107 -0.928590 0.000000
vn -0.314387 -0.949295 0.000000
vn -0.314387 -0.949295 0.000000
vn -0.256526 -0.966537 0.000000
vn -0.256526 -0.966537 0.000000
vn -0.197739 -0.980255 0.000000
vn -0.197739 -0.980255 0.000000
vn -0.138225 -0.990401 0.000000
vn -0.138225 -0.990401 0.000000
vn -0.078197 -0.996938 0.000000
vn -0.078197 -0.996938 0.000000
vn -0.048061 -0.998844 0.000000
vn -0.048061 -0.998844 0.000000
vn 0.000000 0.000000 -1.000000
vn 0.000000 0.000000 -1.000000
vn 0.000000 0.000000 -1.000000
vn 0.000000 0.000000 -1.000000
vn 1.000000 0.000000 0.000000
vn 1.000000 0.000000 0.000000
vn 1.000000 0.000000 0.000000
vn 1.000000 0.000000 0.000000
vn -0.000023 0.000000 1.000000
vn -0.000023 0.000000 1.000000
vn -0.000023 0.000000 1.000000
vn -0.000023 0.000000 1.000000
vn -1.000000 -0.000000 0.000000
vn -1.000000 -0.000000 0.000000
vn -1.000000 -0.000000 0.000000
vn -1.000000 -0.000000 0.000000
vn -0.999840 0.017900 0.000000
vn -0.999840 0.017900 0.000000
vn -0.999840 0.017900 0.000000
vn -0.999840 0.017900 0.000000
vn -0.000000 0.000000 1.000000
vn -0.000000 0.000000 1.000000
vn -0.000000 0.000000 1.000000
vn -0.000000 0.000000 1.000000
vn 0.000000 1.000000 0.000000
vn 0.000000 1.000000 0.000000
vn 0.000000 1.000000 0.000000
vn 0.000000 1.000000 0.000000
vn 0.000000 0.000000 -1.000000
vn 0.000000 0.000000 -1.000000
vn 0.000000 0.000000 -1.000000
vn 0.000000 0.000000 -1.000000
vn -0.000000 -1.000000 0.000000
vn -0.000000 -1.000000 0.000000
vn -0.000000 -1.000000 0.000000
vn -0.000000 -1.000000 0.000000
s 1
g back_wall_v_2
usemtl initialShadingGroup
f 1/129/1 2/130/2 4/131/3 3/132/4
f 3/132/4 4/131/3 6/135/5 5/136/6
f 5/136/6 6/135/5 8/137/7 7/138/8
f 7/138/8 8/137/7 10/139/9 9/140/10
f 9/140/10 10/139/9 12/141/11 11/142/12
f 11/142/12 12/141/11 14/143/13 13/144/14
f 13/144/14 14/143/13 16/145/15 15/146/16
f 15/146/16 16/145/15 18/147/17 17/148/18
f 17/148/18 18/147/17 20/149/19 19/150/20
f 19/150/20 20/149/19 22/151/21 21/152/22
f 21/152/22 22/151/21 24/153/23 23/154/24
f 23/154/24 24/153/23 26/155/25 25/156/26
f 25/156/26 26/155/25 28/157/27 27/158/28
f 27/158/28 28/157/27 30/159/29 29/160/30
f 29/160/30 30/159/29 32/161/31 31/162/32
f 31/162/32 32/161/31 34/163/33 33/164/34
f 33/164/34 34/163/33 36/165/35 35/166/36
f 35/166/36 36/165/35 38/167/37 37/168/38
f 37/168/38 38/167/37 40/169/39 39/170/40
f 39/170/40 40/169/39 42/171/41 41/172/42
f 41/172/42 42/171/41 44/173/43 43/174/44
f 43/174/44 44/173/43 46/175/45 45/176/46
f 45/176/46 46/175/45 48/177/47 47/178/48
f 47/178/48 48/177/47 50/179/49 49/180/50
f 49/180/50 50/179/49 52/181/51 51/182/52
f 51/182/52 52/181/51 54/183/53 53/184/54
s 2
f 55/187/55 56/188/56 58/189/57 57/190/58
f 57/190/58 58/189/57 60/193/59 59/194/60
f 59/194/60 60/193/59 62/195/61 61/196/62
f 61/196/62 62/195/61 64/197/63 63/198/64
f 63/198/64 64/197/63 66/199/65 65/200/66
f 65/200/66 66/199/65 68/201/67 67/202/68
f 67/202/68 68/201/67 70/203/69 69/204/70
f 69/204/70 70/203/69 72/205/71 71/206/72
f 71/206/72 72/205/71 74/207/73 73/208/74
f 73/208/74 74/207/73 76/209/75 75/210/76
f 75/210/76 76/209/75 78/211/77 77/212/78
f 77/212/78 78/211/77 80/213/79 79/214/80
f 79/214/80 80/213/79 82/215/81 81/216/82
f 81/216/82 82/215/81 84/217/83 83/218/84
f 83/218/84 84/217/83 86/219/85 85/220/86
f 85/220/86 86/219/85 88/221/87 87/222/88
f 87/222/88 88/221/87 90/223/89 89/224/90
f 89/224/90 90/223/89 92/225/91 91/226/92
f 91/226/92 92/225/91 94/227/93 93/228/94
f 93/228/94 94/227/93 96/229/95 95/230/96
f 95/230/96 96/229/95 98/231/97 97/232/98
f 97/232/98 98/231/97 100/233/99 99/234/100
f 99/234/100 100/233/99 102/235/101 101/236/102
f 101/236/102 102/235/101 104/237/103 103/238/104
f 103/238/104 104/237/103 106/239/105 105/240/106
f 105/240/106 106/239/105 108/241/107 107/242/108
s off
f 109/85/109 110/86/110 111/87/111 112/88/112
s 3
f 2/1/113 108/2/114 106/3/115 4/4/116
f 4/4/116 106/3/115 104/7/117 6/8/118
f 6/8/118 104/7/117 102/9/119 8/10/120
f 8/10/120 102/9/119 100/11/121 10/12/122
f 10/12/122 100/11/121 98/13/123 12/14/124
f 12/14/124 98/13/123 96/15/125 14/16/126
f 14/16/126 96/15/125 94/17/127 16/18/128
f 16/18/128 94/17/127 92/19/129 18/20/130
f 18/20/130 92/19/129 90/21/131 20/22/132
f 20/22/132 90/21/131 88/23/133 22/24/134
f 22/24/134 88/23/133 86/25/135 24/26/136
f 24/26/136 86/25/135 84/27/137 26/28/138
f 26/28/138 84/27/137 82/29/139 28/30/140
f 28/30/140 82/29/139 80/31/141 30/32/142
f 30/32/142 80/31/141 78/33/143 32/34/144
f 32/34/144 78/33/143 76/35/145 34/36/146
f 34/36/146 76/35/145 74/37/147 36/38/148
f 36/38/148 74/37/147 72/39/149 38/40/150
f 38/89/150 72/90/149 70/91/151 40/92/152
f 40/92/152 70/91/151 68/93/153 42/94/154
f 42/94/154 68/93/153 66/95/155 44/96/156
f 44/96/156 66/95/155 64/97/157 46/98/158
f 46/98/158 64/97/157 62/99/159 48/100/160
f 48/100/160 62/99/159 60/101/161 50/102/162
f 50/102/162 60/101/161 58/103/163 52/104/164
f 52/104/164 58/103/163 56/105/165 54/106/166
s 4
f 107/41/167 1/42/168 3/43/169 105/44/170
f 105/44/170 3/43/169 5/47/171 103/48/172
f 103/48/172 5/47/171 7/49/173 101/50/174
f 101/50/174 7/49/173 9/51/175 99/52/176
f 99/52/176 9/51/175 11/53/177 97/54/178
f 97/54/178 11/53/177 13/55/179 95/56/180
f 95/56/180 13/55/179 15/57/181 93/58/182
f 93/58/182 15/57/181 17/59/183 91/60/184
f 91/60/184 17/59/183 19/61/185 89/62/186
f 89/62/186 19/61/185 21/63/187 87/64/188
f 87/64/188 21/63/187 23/65/189 85/66/190
f 85/66/190 23/65/189 25/67/191 83/68/192
f 83/68/192 25/67/191 27/69/193 81/70/194
f 81/70/194 27/69/193 29/71/195 79/72/196
f 79/72/196 29/71/195 31/73/197 77/74/198
f 77/74/198 31/73/197 33/75/199 75/76/200
f 75/76/200 33/75/199 35/77/201 73/78/202
f 73/78/202 35/77/201 37/79/203 71/80/204
f 71/109/204 37/110/203 39/111/205 69/112/206
f 69/112/206 39/111/205 41/113/207 67/114/208
f 67/114/208 41/113/207 43/115/209 65/116/210
f 65/116/210 43/115/209 45/117/211 63/118/212
f 63/118/212 45/117/211 47/119/213 61/120/214
f 61/120/214 47/119/213 49/121/215 59/122/216
f 59/122/216 49/121/215 51/123/217 57/124/218
f 57/124/218 51/123/217 53/125/219 55/126/220
s off
f 107/242/221 108/241/222 110/243/223 109/244/224
f 108/2/225 2/1/226 111/5/227 110/6/228
f 2/130/229 1/129/230 112/133/231 111/134/232
f 1/42/233 107/41/234 109/45/235 112/46/236
f 113/81/237 114/82/238 115/83/239 116/84/240
f 53/184/241 54/183/242 114/185/243 113/186/244
f 54/106/245 56/105/246 115/107/247 114/108/248
f 56/188/249 55/187/250 116/191/251 115/192/252
f 55/126/253 53/125/254 113/127/255 116/128/256
