# This file uses centimeters as units for non-parametric coordinates.

mtllib cabanet.mtl
g default
v -29.620388 0.174112 435.437103
v -29.620388 -0.028453 435.437103
v -30.173058 -0.028453 435.437103
v -30.173058 0.174112 435.437103
v -30.173058 -0.028453 436.126099
v -30.173058 0.174112 436.126099
v -29.620388 -0.028453 436.126099
v -29.620388 0.174112 436.126099
v -27.523861 0.174112 435.437103
v -27.523861 -0.028453 435.437103
v -27.523861 -0.028453 436.126099
v -27.523861 0.174112 436.126099
v -26.971191 -0.028453 435.437103
v -26.971191 -0.028453 436.126099
v -26.971191 0.174112 436.126099
v -26.971191 0.174112 435.437103
v -30.390396 0.174112 435.177368
v -30.390396 0.174112 447.283905
v -30.390396 0.621175 446.681091
v -30.390396 0.621175 435.780243
v -27.145008 0.621175 446.681091
v -27.145008 0.621175 435.780243
v -30.390396 22.226509 435.177368
v -30.390396 21.779449 435.780243
v -29.620388 0.174112 446.132019
v -29.620388 -0.028453 446.132019
v -30.173058 -0.028453 446.132019
v -30.173058 0.174112 446.132019
v -30.173058 -0.028453 446.821014
v -30.173058 0.174112 446.821014
v -29.620388 -0.028453 446.821014
v -29.620388 0.174112 446.821014
v -27.145008 22.226509 435.177368
v -27.145008 0.174112 435.177368
v -27.145008 7.479396 446.681091
v -27.145008 7.479396 435.780243
v -30.336559 7.479396 435.780243
v -30.336559 7.479396 446.681091
v -30.336559 7.829319 446.681091
v -30.336559 7.829319 435.780243
v -27.523861 0.174112 446.132019
v -27.523861 -0.028453 446.132019
v -27.523861 -0.028453 446.821014
v -27.523861 0.174112 446.821014
v -26.971191 -0.028453 446.132019
v -26.971191 -0.028453 446.821014
v -26.737303 22.226509 435.177368
v -26.737303 0.174112 435.177368
v -26.971191 0.174112 446.821014
v -26.971191 0.174112 446.132019
v -27.145008 7.829319 446.681091
v -27.145008 7.829319 435.780243
v -26.737303 0.174112 447.283905
v -26.737303 22.226509 447.283905
v -30.390396 22.226509 447.283905
v -30.390396 21.779449 446.681091
v -27.145008 21.779449 446.681091
v -27.145008 21.779449 435.780243
v -27.145008 0.174112 447.283905
v -27.145008 22.226509 447.283905
v -27.145008 0.174112 435.437103
v -27.145008 0.174112 436.126099
v -27.145008 0.174112 446.132019
v -27.145008 0.174112 446.821014
vt 0.992144 0.235417
vt 0.987100 0.235417
vt 0.987100 0.219611
vt 0.992144 0.219611
vt 0.992144 0.213809
vt 0.987100 0.213809
vt 0.987100 0.198002
vt 0.992144 0.198002
vt 0.998008 0.194001
vt 0.992964 0.194001
vt 0.992964 0.178195
vt 0.998008 0.178195
vt 0.992144 0.172393
vt 0.987100 0.172393
vt 0.987100 0.156586
vt 0.992144 0.156586
vt 0.001992 0.002955
vt 0.303483 0.002955
vt 0.288471 0.013212
vt 0.017005 0.013212
vt 0.303483 0.508892
vt 0.288471 0.498636
vt 0.001992 0.508892
vt 0.017005 0.498636
vt 0.998008 0.152585
vt 0.992963 0.152585
vt 0.992963 0.136778
vt 0.998008 0.136778
vt 0.992144 0.130977
vt 0.987100 0.130977
vt 0.987100 0.115170
vt 0.992144 0.115170
vt 0.097767 0.764344
vt 0.097767 0.514251
vt 0.268559 0.514251
vt 0.268559 0.764344
vt 0.987100 0.490486
vt 0.987100 0.240393
vt 0.995814 0.240393
vt 0.995814 0.490486
vt 0.998008 0.111169
vt 0.992963 0.111169
vt 0.992963 0.095362
vt 0.998008 0.095362
vt 0.992144 0.089561
vt 0.987100 0.089561
vt 0.987100 0.073754
vt 0.992144 0.073754
vt 0.404638 0.002955
vt 0.706129 0.002955
vt 0.706129 0.508892
vt 0.404638 0.508892
vt 0.576420 0.515315
vt 0.576420 0.835366
vt 0.304954 0.835366
vt 0.304954 0.515315
vt 0.273680 0.513155
vt 0.287444 0.513155
vt 0.287444 0.528961
vt 0.273680 0.528961
vt 0.273680 0.534763
vt 0.287444 0.534763
vt 0.287444 0.550570
vt 0.273680 0.550570
vt 0.892010 0.494087
vt 0.892010 0.744180
vt 0.811189 0.744180
vt 0.811189 0.494087
vt 0.273680 0.556844
vt 0.287444 0.556844
vt 0.287444 0.572651
vt 0.273680 0.572651
vt 0.273680 0.578453
vt 0.287444 0.578453
vt 0.287444 0.594259
vt 0.273680 0.594259
vt 0.580551 0.762116
vt 0.580551 0.512023
vt 0.660031 0.512023
vt 0.660031 0.762116
vt 0.666552 0.763988
vt 0.666552 0.513895
vt 0.746032 0.513895
vt 0.746032 0.763988
vt 0.833373 0.747915
vt 0.833373 0.998008
vt 0.752553 0.998008
vt 0.752553 0.747915
vt 0.979965 0.496458
vt 0.979965 0.774212
vt 0.899145 0.774212
vt 0.899145 0.496458
vt 0.990118 0.496458
vt 0.990118 0.774212
vt 0.082813 0.514399
vt 0.092966 0.514399
vt 0.092966 0.792152
vt 0.082813 0.792152
vt 0.082813 0.781532
vt 0.087141 0.781532
vt 0.087141 0.765726
vt 0.082813 0.765726
vt 0.082813 0.536165
vt 0.087141 0.536165
vt 0.087141 0.520358
vt 0.082813 0.520358
vt 0.073378 0.765726
vt 0.073378 0.781532
vt 0.001992 0.792152
vt 0.001992 0.514399
vt 0.007404 0.520358
vt 0.007404 0.536165
vt 0.007404 0.765726
vt 0.007404 0.781532
vt 0.021168 0.781532
vt 0.021168 0.765726
vt 0.073378 0.520358
vt 0.073378 0.536165
vt 0.021168 0.536165
vt 0.021168 0.520358
vt 0.992964 0.057335
vt 0.998008 0.057335
vt 0.998008 0.070015
vt 0.992964 0.070015
vt 0.998008 0.048382
vt 0.992964 0.048382
vt 0.992964 0.035702
vt 0.998008 0.035702
vt 0.987100 0.017720
vt 0.992144 0.017720
vt 0.992144 0.030400
vt 0.987100 0.030400
vt 0.298271 0.527374
vt 0.293226 0.527374
vt 0.293226 0.514694
vt 0.298271 0.514694
vt 0.389684 0.001992
vt 0.389684 0.507930
vt 0.308863 0.507930
vt 0.308863 0.001992
vt 0.399837 0.001992
vt 0.399837 0.507930
vt 0.794282 0.002955
vt 0.794282 0.508892
vt 0.713461 0.508892
vt 0.713461 0.002955
vt 0.804435 0.002955
vt 0.804435 0.508892
vt 0.293226 0.534526
vt 0.298271 0.534526
vt 0.298271 0.547206
vt 0.293226 0.547206
vt 0.293226 0.538514
vt 0.293226 0.565188
vt 0.293226 0.552508
vt 0.298271 0.552508
vt 0.298271 0.556496
vt 0.298271 0.565188
vt 0.293226 0.572340
vt 0.298271 0.572340
vt 0.298271 0.585020
vt 0.293226 0.585020
vt 0.293226 0.576328
vt 0.293226 0.603003
vt 0.293226 0.590323
vt 0.298271 0.590323
vt 0.298271 0.594311
vt 0.298271 0.603003
vt 0.892010 0.004208
vt 0.892010 0.161553
vt 0.812530 0.161553
vt 0.812530 0.169581
vt 0.892010 0.169581
vt 0.892010 0.489632
vt 0.811189 0.489632
vt 0.811189 0.004208
vt 0.979965 0.003245
vt 0.979965 0.323296
vt 0.900485 0.323296
vt 0.900485 0.331324
vt 0.979965 0.331324
vt 0.979965 0.488669
vt 0.899145 0.488669
vt 0.899145 0.003245
vn 0.000000 0.000000 -1.000000
vn 0.000000 0.000000 -1.000000
vn 0.000000 0.000000 -1.000000
vn 0.000000 0.000000 -1.000000
vn -1.000000 0.000000 0.000000
vn -1.000000 0.000000 0.000000
vn -1.000000 0.000000 0.000000
vn -1.000000 0.000000 0.000000
vn 0.000000 -1.000000 0.000000
vn 0.000000 -1.000000 0.000000
vn 0.000000 -1.000000 0.000000
vn 0.000000 -1.000000 0.000000
vn 1.000000 0.000000 0.000000
vn 1.000000 0.000000 0.000000
vn 1.000000 0.000000 0.000000
vn 1.000000 0.000000 0.000000
vn 0.000000 0.000000 1.000000
vn 0.000000 0.000000 1.000000
vn 0.000000 0.000000 1.000000
vn 0.000000 0.000000 1.000000
vn -1.000000 0.000000 0.000000
vn -1.000000 0.000000 0.000000
vn -1.000000 0.000000 0.000000
vn -1.000000 0.000000 0.000000
vn 0.000000 -1.000000 0.000000
vn 0.000000 -1.000000 0.000000
vn 0.000000 -1.000000 0.000000
vn 0.000000 -1.000000 0.000000
vn 1.000000 0.000000 0.000000
vn 1.000000 0.000000 0.000000
vn 1.000000 0.000000 0.000000
vn 1.000000 0.000000 0.000000
vn -1.000000 0.000004 0.000000
vn -1.000000 0.000004 0.000000
vn -1.000000 0.000004 0.000000
vn -1.000000 0.000004 0.000000
vn 0.000000 1.000000 0.000000
vn 0.000000 1.000000 0.000000
vn 0.000000 1.000000 0.000000
vn 0.000000 1.000000 0.000000
vn -1.000000 0.000000 0.000000
vn -1.000000 0.000000 0.000000
vn -1.000000 0.000000 0.000000
vn -1.000000 0.000000 0.000000
vn 0.000000 0.000000 -1.000000
vn 0.000000 0.000000 -1.000000
vn 0.000000 0.000000 -1.000000
vn 0.000000 0.000000 -1.000000
vn -1.000000 0.000000 0.000000
vn -1.000000 0.000000 0.000000
vn -1.000000 0.000000 0.000000
vn -1.000000 0.000000 0.000000
vn 0.000000 -1.000000 0.000000
vn 0.000000 -1.000000 0.000000
vn 0.000000 -1.000000 0.000000
vn 0.000000 -1.000000 0.000000
vn 1.000000 0.000000 0.000000
vn 1.000000 0.000000 0.000000
vn 1.000000 0.000000 0.000000
vn 1.000000 0.000000 0.000000
vn 0.000000 0.000000 1.000000
vn 0.000000 0.000000 1.000000
vn 0.000000 0.000000 1.000000
vn 0.000000 0.000000 1.000000
vn 0.000000 0.000000 -1.000000
vn 0.000000 0.000000 -1.000000
vn 0.000000 0.000000 -1.000000
vn 0.000000 0.000000 -1.000000
vn -1.000000 0.000000 0.000000
vn -1.000000 0.000000 0.000000
vn -1.000000 0.000000 0.000000
vn -1.000000 0.000000 0.000000
vn -1.000000 0.000000 0.000000
vn -1.000000 0.000000 0.000000
vn -1.000000 0.000000 0.000000
vn -1.000000 0.000000 0.000000
vn -1.000000 0.000000 0.000000
vn -1.000000 0.000000 0.000000
vn -1.000000 0.000000 0.000000
vn -1.000000 0.000000 0.000000
vn 0.000000 -1.000000 0.000000
vn 0.000000 -1.000000 0.000000
vn 0.000000 -1.000000 0.000000
vn 0.000000 -1.000000 0.000000
vn 0.000000 0.000000 -1.000000
vn 0.000000 0.000000 -1.000000
vn 0.000000 0.000000 -1.000000
vn 0.000000 0.000000 -1.000000
vn 1.000000 0.000000 0.000000
vn 1.000000 0.000000 0.000000
vn 1.000000 0.000000 0.000000
vn 1.000000 0.000000 0.000000
vn 0.000000 -1.000000 0.000000
vn 0.000000 -1.000000 0.000000
vn 0.000000 -1.000000 0.000000
vn 0.000000 -1.000000 0.000000
vn 0.000000 1.000000 0.000000
vn 0.000000 1.000000 0.000000
vn 0.000000 1.000000 0.000000
vn 0.000000 1.000000 0.000000
vn 1.000000 0.000000 0.000000
vn 1.000000 0.000000 0.000000
vn 1.000000 0.000000 0.000000
vn 1.000000 0.000000 0.000000
vn -1.000000 0.000000 0.000000
vn -1.000000 0.000000 0.000000
vn -1.000000 0.000000 0.000000
vn -1.000000 0.000000 0.000000
vn -1.000000 0.000000 0.000000
vn -1.000000 0.000000 0.000000
vn -1.000000 0.000000 0.000000
vn -1.000000 0.000000 0.000000
vn 0.000000 0.000000 1.000000
vn 0.000000 0.000000 1.000000
vn 0.000000 0.000000 1.000000
vn 0.000000 0.000000 1.000000
vn 0.000000 0.000000 1.000000
vn 0.000000 0.000000 1.000000
vn 0.000000 0.000000 1.000000
vn 0.000000 0.000000 1.000000
vn -1.000000 -0.000003 0.000000
vn -1.000000 -0.000003 0.000000
vn -1.000000 -0.000003 0.000000
vn -1.000000 -0.000003 0.000000
vn 0.000000 -1.000000 0.000000
vn 0.000000 -1.000000 0.000000
vn 0.000000 -1.000000 0.000000
vn 0.000000 -1.000000 0.000000
vn 0.000000 1.000000 0.000000
vn 0.000000 1.000000 0.000000
vn 0.000000 1.000000 0.000000
vn 0.000000 1.000000 0.000000
vn 0.000000 1.000000 0.000000
vn 0.000000 1.000000 0.000000
vn 0.000000 1.000000 0.000000
vn 0.000000 1.000000 0.000000
vn 0.000000 0.000000 -1.000000
vn 0.000000 0.000000 -1.000000
vn 0.000000 0.000000 -1.000000
vn 0.000000 0.000000 -1.000000
vn 0.000000 0.000000 -1.000000
vn 0.000000 0.000000 1.000000
vn 0.000000 0.000000 1.000000
vn 0.000000 0.000000 1.000000
vn 0.000000 0.000000 1.000000
vn 0.000000 0.000000 1.000000
vn 0.000000 0.000000 -1.000000
vn 0.000000 0.000000 -1.000000
vn 0.000000 0.000000 -1.000000
vn 0.000000 0.000000 -1.000000
vn 0.000000 0.000000 -1.000000
vn 0.000000 0.000000 1.000000
vn 0.000000 0.000000 1.000000
vn 0.000000 0.000000 1.000000
vn 0.000000 0.000000 1.000000
vn 0.000000 0.000000 1.000000
vn 0.000000 0.000000 1.000000
vn 0.000000 0.000000 1.000000
vn 0.000000 0.000000 1.000000
vn 0.000000 0.000000 1.000000
vn 0.000000 0.000000 1.000000
vn 0.000000 0.000000 1.000000
vn 0.000000 0.000000 1.000000
vn 0.000000 0.000000 1.000000
vn -0.000014 0.000000 -1.000000
vn -0.000014 0.000000 -1.000000
vn -0.000014 0.000000 -1.000000
vn -0.000014 0.000000 -1.000000
vn -0.000014 0.000000 -1.000000
vn -0.000014 0.000000 -1.000000
vn -0.000014 0.000000 -1.000000
vn -0.000014 0.000000 -1.000000
vn 0.000000 -1.000000 0.000000
vn 0.000000 -1.000000 0.000000
vn 0.000000 -1.000000 0.000000
vn 0.000000 -1.000000 0.000000
vn 0.000000 -1.000000 0.000000
vn 0.000000 -1.000000 0.000000
vn 0.000000 -1.000000 0.000000
vn 0.000000 -1.000000 0.000000
vn 0.000000 -1.000000 0.000000
vn 0.000000 -1.000000 0.000000
vn 0.000000 -1.000000 0.000000
vn 0.000000 -1.000000 0.000000
vn 0.000000 -1.000000 0.000000
vn 0.000000 -1.000000 0.000000
vn 0.000000 -1.000000 0.000000
vn 0.000000 -1.000000 0.000000
vn 0.000000 -1.000000 0.000000
vn 0.000000 -1.000000 0.000000
vn 0.000000 -1.000000 0.000000
vn 0.000000 -1.000000 0.000000
vn 0.000000 -1.000000 0.000000
vn 0.000000 -1.000000 0.000000
vn 0.000000 -1.000000 0.000000
vn 0.000000 -1.000000 0.000000
vn 0.000000 -1.000000 0.000000
vn 0.000000 -1.000000 0.000000
s off
g pCube84
usemtl initialShadingGroup
f 1/121/1 2/122/2 3/123/3 4/124/4
f 4/1/5 3/2/6 5/3/7 6/4/8
f 3/57/9 2/58/10 7/59/11 5/60/12
f 8/5/13 7/6/14 2/7/15 1/8/16
f 6/125/17 5/126/18 7/127/19 8/128/20
f 9/9/21 10/10/22 11/11/23 12/12/24
f 10/61/25 13/62/26 14/63/27 11/64/28
f 15/13/29 14/14/30 13/15/31 16/16/32
f 17/17/33 18/18/34 19/19/35 20/20/36
f 21/65/37 22/66/38 20/67/39 19/68/40
f 23/23/41 17/17/42 20/20/43 24/24/44
f 25/129/45 26/130/46 27/131/47 28/132/48
f 28/25/49 27/26/50 29/27/51 30/28/52
f 27/69/53 26/70/54 31/71/55 29/72/56
f 32/29/57 31/30/58 26/31/59 25/32/60
f 30/133/61 29/134/62 31/135/63 32/136/64
f 33/137/65 34/138/66 17/139/67 23/140/68
f 22/33/69 21/34/70 35/35/71 36/36/72
f 37/37/73 38/38/74 39/39/75 40/40/76
f 41/41/77 42/42/78 43/43/79 44/44/80
f 42/73/81 45/74/82 46/75/83 43/76/84
f 33/137/85 47/141/86 48/142/87 34/138/88
f 49/45/89 46/46/90 45/47/91 50/48/92
f 38/77/93 37/78/94 36/79/95 35/80/96
f 40/81/97 39/82/98 51/83/99 52/84/100
f 53/49/101 48/50/102 47/51/103 54/52/104
f 18/18/105 55/21/106 56/22/107 19/19/108
f 51/53/109 57/54/110 58/55/111 52/56/112
f 59/143/113 60/144/114 55/145/115 18/146/116
f 59/143/117 53/147/118 54/148/119 60/144/120
f 55/21/121 23/23/122 24/24/123 56/22/124
f 58/85/125 57/86/126 56/87/127 24/88/128
f 60/89/129 33/90/130 23/91/131 55/92/132
f 60/89/133 54/93/134 47/94/135 33/90/136
f 16/149/137 13/150/138 10/151/139 9/152/140 61/153/141
f 11/154/142 14/155/143 15/156/144 62/157/145 12/158/146
f 50/159/147 45/160/148 42/161/149 41/162/150 63/163/151
f 43/164/152 46/165/153 49/166/154 64/167/155 44/168/156
f 22/169/157 36/170/158 37/171/159 40/172/160 52/173/161 58/174/162 24/175/163 20/176/164
f 57/177/165 51/178/166 39/179/167 38/180/168 35/181/169 21/182/170 19/183/171 56/184/172
s 1
f 34/95/173 48/96/174 53/97/175 59/98/176 64/99/177 49/100/178 50/101/179 63/102/180 62/103/181 15/104/182 16/105/183 61/106/184
f 41/107/185 44/108/186 64/99/177 59/98/176 18/109/187 17/110/188 4/111/189 6/112/190 28/113/191 30/114/192 32/115/193 25/116/194
f 34/95/173 61/106/184 9/117/195 12/118/196 62/103/181 63/102/180 41/107/185 25/116/194 28/113/191 6/112/190 8/119/197 1/120/198 4/111/189 17/110/188
