# This file uses centimeters as units for non-parametric coordinates.

mtllib window.mtl
g default
v -70.557990 15.919050 -340.418359
v -70.246690 15.919050 -340.418359
v -70.557990 18.743831 -340.418359
v -70.246690 18.743831 -340.418359
v -70.557990 18.743831 -344.646087
v -70.246690 18.743831 -344.646087
v -70.557990 15.919050 -344.646087
v -70.246690 15.919050 -344.646087
v -70.246690 16.067224 -344.552453
v -70.246690 16.067224 -340.511993
v -70.246690 18.595658 -344.552453
v -70.246690 18.595658 -340.511993
v -70.557990 16.067224 -344.552453
v -70.557990 16.067224 -340.511993
v -70.557990 18.595658 -340.511993
v -70.557990 18.595658 -344.552453
vt 0.099635 0.562658
vt 0.099635 0.001829
vt 0.119291 0.014250
vt 0.119291 0.550237
vt 0.474356 0.001829
vt 0.454700 0.014250
vt 0.474356 0.562658
vt 0.454700 0.550237
vt 0.481629 0.562658
vt 0.481629 0.001829
vt 0.501285 0.014251
vt 0.501285 0.550238
vt 0.856351 0.001829
vt 0.836695 0.014251
vt 0.856351 0.562658
vt 0.836695 0.550238
vt 0.001992 0.001829
vt 0.043287 0.001829
vt 0.043287 0.562658
vt 0.001992 0.562658
vt 0.050911 0.001829
vt 0.092206 0.001829
vt 0.092206 0.562658
vt 0.050911 0.562658
vt 0.904919 0.001829
vt 0.904919 0.537817
vt 0.863624 0.537817
vt 0.863624 0.001829
vt 0.953643 0.001829
vt 0.953643 0.537817
vt 0.912348 0.537817
vt 0.912348 0.001829
vt 0.956713 0.541808
vt 0.998008 0.541808
vt 0.998008 0.916530
vt 0.956713 0.916530
vt 0.909282 0.541808
vt 0.950577 0.541808
vt 0.950577 0.916530
vt 0.909282 0.916530
vt 0.903147 0.541808
vt 0.903147 0.877218
vt 0.861851 0.877218
vt 0.861851 0.541808
vt 0.855716 0.566650
vt 0.855716 0.902059
vt 0.814420 0.902059
vt 0.814420 0.566650
vn 0.000000 0.000000 1.000000
vn 0.000000 0.000000 1.000000
vn 0.000000 0.000000 1.000000
vn 0.000000 0.000000 1.000000
vn 0.000000 1.000000 0.000000
vn 0.000000 1.000000 0.000000
vn 0.000000 1.000000 0.000000
vn 0.000000 1.000000 0.000000
vn 0.000000 0.000000 -1.000000
vn 0.000000 0.000000 -1.000000
vn 0.000000 0.000000 -1.000000
vn 0.000000 0.000000 -1.000000
vn 0.000000 -1.000000 0.000000
vn 0.000000 -1.000000 0.000000
vn 0.000000 -1.000000 0.000000
vn 0.000000 -1.000000 0.000000
vn 1.000000 0.000004 0.000000
vn 1.000000 0.000004 0.000000
vn 1.000000 0.000004 0.000000
vn 1.000000 0.000004 0.000000
vn 1.000000 0.000000 0.000000
vn 1.000000 0.000000 0.000000
vn 1.000000 0.000000 0.000000
vn 1.000000 0.000000 0.000000
vn 1.000000 -0.000004 0.000000
vn 1.000000 -0.000004 0.000000
vn 1.000000 -0.000004 0.000000
vn 1.000000 -0.000004 0.000000
vn 1.000000 0.000000 0.000000
vn 1.000000 0.000000 0.000000
vn 1.000000 0.000000 0.000000
vn 1.000000 0.000000 0.000000
vn -1.000000 -0.000001 0.000000
vn -1.000000 -0.000001 0.000000
vn -1.000000 -0.000001 0.000000
vn -1.000000 -0.000001 0.000000
vn -1.000000 0.000000 0.000000
vn -1.000000 0.000000 0.000000
vn -1.000000 0.000000 0.000000
vn -1.000000 0.000000 0.000000
vn -1.000000 0.000001 0.000000
vn -1.000000 0.000001 0.000000
vn -1.000000 0.000001 0.000000
vn -1.000000 0.000001 0.000000
vn -1.000000 0.000000 0.000000
vn -1.000000 0.000000 0.000000
vn -1.000000 0.000000 0.000000
vn -1.000000 0.000000 0.000000
vn 0.000000 1.000000 0.000000
vn 0.000000 1.000000 0.000000
vn 0.000000 1.000000 0.000000
vn 0.000000 1.000000 0.000000
vn 0.000000 0.000000 -1.000000
vn 0.000000 0.000000 -1.000000
vn 0.000000 0.000000 -1.000000
vn 0.000000 0.000000 -1.000000
vn 0.000000 -1.000000 0.000000
vn 0.000000 -1.000000 0.000000
vn 0.000000 -1.000000 0.000000
vn 0.000000 -1.000000 0.000000
vn 0.000000 0.000000 1.000000
vn 0.000000 0.000000 1.000000
vn 0.000000 0.000000 1.000000
vn 0.000000 0.000000 1.000000
s off
g pCube3
usemtl standardSurface5SG
f 1/33/1 2/34/2 4/35/3 3/36/4
f 3/17/5 4/18/6 6/19/7 5/20/8
f 5/37/9 6/38/10 8/39/11 7/40/12
f 7/21/13 8/22/14 2/23/15 1/24/16
f 2/1/17 8/2/18 9/3/19 10/4/20
f 8/2/21 6/5/22 11/6/23 9/3/24
f 6/5/25 4/7/26 12/8/27 11/6/28
f 4/7/29 2/1/30 10/4/31 12/8/32
f 7/9/33 1/10/34 14/11/35 13/12/36
f 1/10/37 3/13/38 15/14/39 14/11/40
f 3/13/41 5/15/42 16/16/43 15/14/44
f 5/15/45 7/9/46 13/12/47 16/16/48
f 10/25/49 9/26/50 13/27/51 14/28/52
f 12/41/53 10/42/54 14/43/55 15/44/56
f 11/29/57 12/30/58 15/31/59 16/32/60
f 9/45/61 11/46/62 16/47/63 13/48/64
g default
v -70.400960 16.092120 -340.514631
v -70.248489 16.092120 -340.514631
v -70.400960 17.358355 -340.514631
v -70.248489 17.358355 -340.514631
v -70.400960 17.358355 -344.568409
v -70.248489 17.358355 -344.568409
v -70.400960 16.092120 -344.568409
v -70.248489 16.092120 -344.568409
v -70.248489 16.176423 -344.478632
v -70.248489 16.176423 -340.604408
v -70.248489 17.274052 -344.478632
v -70.248489 17.274052 -340.604408
v -70.400960 16.176423 -344.478632
v -70.400960 16.176423 -340.604408
v -70.400960 17.274052 -340.604408
v -70.400960 17.274052 -344.478632
v -70.532315 17.275092 -340.514631
v -70.379845 17.275092 -340.514631
v -70.532315 18.660719 -340.514631
v -70.379845 18.660719 -340.514631
v -70.532315 18.660719 -344.568409
v -70.379845 18.660719 -344.568409
v -70.532315 17.275092 -344.568409
v -70.379845 17.275092 -344.568409
v -70.379845 17.359395 -344.478632
v -70.379845 17.359395 -340.604408
v -70.379845 18.576417 -344.478632
v -70.379845 18.576417 -340.604408
v -70.532315 17.359395 -344.478632
v -70.532315 17.359395 -340.604408
v -70.532315 18.576417 -340.604408
v -70.532315 18.576417 -344.478632
vt 0.055301 0.521176
vt 0.055301 0.001992
vt 0.066098 0.013490
vt 0.066098 0.509678
vt 0.217473 0.001992
vt 0.206676 0.013490
vt 0.217473 0.521176
vt 0.206676 0.509678
vt 0.224106 0.521176
vt 0.224106 0.001992
vt 0.234903 0.013490
vt 0.234903 0.509678
vt 0.386278 0.001992
vt 0.375481 0.013490
vt 0.386278 0.521176
vt 0.375481 0.509678
vt 0.446217 0.521176
vt 0.446217 0.001992
vt 0.457014 0.013490
vt 0.457014 0.509678
vt 0.623681 0.001992
vt 0.612884 0.013490
vt 0.623681 0.521176
vt 0.612884 0.509678
vt 0.631014 0.521176
vt 0.631014 0.001992
vt 0.641811 0.013490
vt 0.641811 0.509678
vt 0.808478 0.001992
vt 0.797681 0.013490
vt 0.808478 0.521176
vt 0.797681 0.509678
vt 0.001816 0.001992
vt 0.021344 0.001992
vt 0.021344 0.521176
vt 0.001816 0.521176
vt 0.028647 0.001992
vt 0.048175 0.001992
vt 0.048175 0.521176
vt 0.028647 0.521176
vt 0.835339 0.001992
vt 0.835339 0.498181
vt 0.815811 0.498181
vt 0.815811 0.001992
vt 0.861992 0.001992
vt 0.861992 0.498180
vt 0.842464 0.498180
vt 0.842464 0.001992
vt 0.392910 0.001992
vt 0.412438 0.001992
vt 0.412438 0.521176
vt 0.392910 0.521176
vt 0.419564 0.001992
vt 0.439091 0.001992
vt 0.439091 0.521176
vt 0.419564 0.521176
vt 0.888645 0.001992
vt 0.888645 0.498181
vt 0.869118 0.498181
vt 0.869118 0.001992
vt 0.909901 0.501820
vt 0.909901 0.998008
vt 0.890373 0.998008
vt 0.890373 0.501820
vt 0.815010 0.501820
vt 0.834537 0.501820
vt 0.834537 0.663992
vt 0.815010 0.663992
vt 0.789889 0.524815
vt 0.809416 0.524815
vt 0.809416 0.686988
vt 0.789889 0.686988
vt 0.734053 0.524815
vt 0.734053 0.665394
vt 0.714525 0.665394
vt 0.714525 0.524815
vt 0.708932 0.524815
vt 0.708932 0.665394
vt 0.689404 0.665394
vt 0.689404 0.524815
vt 0.865252 0.501820
vt 0.884780 0.501820
vt 0.884780 0.679283
vt 0.865252 0.679283
vt 0.840131 0.501820
vt 0.859659 0.501820
vt 0.859659 0.679283
vt 0.840131 0.679283
vt 0.784295 0.524815
vt 0.784295 0.680685
vt 0.764768 0.680685
vt 0.764768 0.524815
vt 0.759174 0.524815
vt 0.759174 0.680685
vt 0.739646 0.680685
vt 0.739646 0.524815
vn 0.000000 0.000000 1.000000
vn 0.000000 0.000000 1.000000
vn 0.000000 0.000000 1.000000
vn 0.000000 0.000000 1.000000
vn 0.000000 1.000000 0.000000
vn 0.000000 1.000000 0.000000
vn 0.000000 1.000000 0.000000
vn 0.000000 1.000000 0.000000
vn 0.000000 0.000000 -1.000000
vn 0.000000 0.000000 -1.000000
vn 0.000000 0.000000 -1.000000
vn 0.000000 0.000000 -1.000000
vn 0.000000 -1.000000 0.000000
vn 0.000000 -1.000000 0.000000
vn 0.000000 -1.000000 0.000000
vn 0.000000 -1.000000 0.000000
vn 1.000000 -0.000002 0.000000
vn 1.000000 -0.000002 0.000000
vn 1.000000 -0.000002 0.000000
vn 1.000000 -0.000002 0.000000
vn 1.000000 0.000000 0.000000
vn 1.000000 0.000000 0.000000
vn 1.000000 0.000000 0.000000
vn 1.000000 0.000000 0.000000
vn 1.000000 0.000002 0.000000
vn 1.000000 0.000002 0.000000
vn 1.000000 0.000002 0.000000
vn 1.000000 0.000002 0.000000
vn 1.000000 0.000000 0.000000
vn 1.000000 0.000000 0.000000
vn 1.000000 0.000000 0.000000
vn 1.000000 0.000000 0.000000
vn -1.000000 -0.000003 0.000000
vn -1.000000 -0.000003 0.000000
vn -1.000000 -0.000003 0.000000
vn -1.000000 -0.000003 0.000000
vn -1.000000 0.000000 0.000000
vn -1.000000 0.000000 0.000000
vn -1.000000 0.000000 0.000000
vn -1.000000 0.000000 0.000000
vn -1.000000 0.000003 0.000000
vn -1.000000 0.000003 0.000000
vn -1.000000 0.000003 0.000000
vn -1.000000 0.000003 0.000000
vn -1.000000 0.000000 0.000000
vn -1.000000 0.000000 0.000000
vn -1.000000 0.000000 0.000000
vn -1.000000 0.000000 0.000000
vn 0.000000 1.000000 0.000000
vn 0.000000 1.000000 0.000000
vn 0.000000 1.000000 0.000000
vn 0.000000 1.000000 0.000000
vn 0.000000 0.000000 -1.000000
vn 0.000000 0.000000 -1.000000
vn 0.000000 0.000000 -1.000000
vn 0.000000 0.000000 -1.000000
vn 0.000000 -1.000000 0.000000
vn 0.000000 -1.000000 0.000000
vn 0.000000 -1.000000 0.000000
vn 0.000000 -1.000000 0.000000
vn 0.000000 0.000000 1.000000
vn 0.000000 0.000000 1.000000
vn 0.000000 0.000000 1.000000
vn 0.000000 0.000000 1.000000
vn 0.000000 0.000000 1.000000
vn 0.000000 0.000000 1.000000
vn 0.000000 0.000000 1.000000
vn 0.000000 0.000000 1.000000
vn 0.000000 1.000000 0.000000
vn 0.000000 1.000000 0.000000
vn 0.000000 1.000000 0.000000
vn 0.000000 1.000000 0.000000
vn 0.000000 0.000000 -1.000000
vn 0.000000 0.000000 -1.000000
vn 0.000000 0.000000 -1.000000
vn 0.000000 0.000000 -1.000000
vn 0.000000 -1.000000 0.000000
vn 0.000000 -1.000000 0.000000
vn 0.000000 -1.000000 0.000000
vn 0.000000 -1.000000 0.000000
vn 1.000000 0.000000 0.000000
vn 1.000000 0.000000 0.000000
vn 1.000000 0.000000 0.000000
vn 1.000000 0.000000 0.000000
vn 1.000000 0.000000 0.000000
vn 1.000000 0.000000 0.000000
vn 1.000000 0.000000 0.000000
vn 1.000000 0.000000 0.000000
vn 1.000000 0.000000 0.000000
vn 1.000000 0.000000 0.000000
vn 1.000000 0.000000 0.000000
vn 1.000000 0.000000 0.000000
vn 1.000000 0.000000 0.000000
vn 1.000000 0.000000 0.000000
vn 1.000000 0.000000 0.000000
vn 1.000000 0.000000 0.000000
vn -1.000000 0.000009 0.000000
vn -1.000000 0.000009 0.000000
vn -1.000000 0.000009 0.000000
vn -1.000000 0.000009 0.000000
vn -1.000000 0.000000 0.000000
vn -1.000000 0.000000 0.000000
vn -1.000000 0.000000 0.000000
vn -1.000000 0.000000 0.000000
vn -1.000000 -0.000009 0.000000
vn -1.000000 -0.000009 0.000000
vn -1.000000 -0.000009 0.000000
vn -1.000000 -0.000009 0.000000
vn -1.000000 0.000000 0.000000
vn -1.000000 0.000000 0.000000
vn -1.000000 0.000000 0.000000
vn -1.000000 0.000000 0.000000
vn 0.000000 1.000000 0.000000
vn 0.000000 1.000000 0.000000
vn 0.000000 1.000000 0.000000
vn 0.000000 1.000000 0.000000
vn 0.000000 0.000000 -1.000000
vn 0.000000 0.000000 -1.000000
vn 0.000000 0.000000 -1.000000
vn 0.000000 0.000000 -1.000000
vn 0.000000 -1.000000 0.000000
vn 0.000000 -1.000000 0.000000
vn 0.000000 -1.000000 0.000000
vn 0.000000 -1.000000 0.000000
vn 0.000000 0.000000 1.000000
vn 0.000000 0.000000 1.000000
vn 0.000000 0.000000 1.000000
vn 0.000000 0.000000 1.000000
s off
g pCube6
usemtl standardSurface4SG
f 17/113/65 18/114/66 20/115/67 19/116/68
f 19/81/69 20/82/70 22/83/71 21/84/72
f 21/117/73 22/118/74 24/119/75 23/120/76
f 23/85/77 24/86/78 18/87/79 17/88/80
f 18/49/81 24/50/82 25/51/83 26/52/84
f 24/50/85 22/53/86 27/54/87 25/51/88
f 22/53/89 20/55/90 28/56/91 27/54/92
f 20/55/93 18/49/94 26/52/95 28/56/96
f 23/57/97 17/58/98 30/59/99 29/60/100
f 17/58/101 19/61/102 31/62/103 30/59/104
f 19/61/105 21/63/106 32/64/107 31/62/108
f 21/63/109 23/57/110 29/60/111 32/64/112
f 26/89/113 25/90/114 29/91/115 30/92/116
f 28/121/117 26/122/118 30/123/119 31/124/120
f 27/93/121 28/94/122 31/95/123 32/96/124
f 25/125/125 27/126/126 32/127/127 29/128/128
f 33/129/129 34/130/130 36/131/131 35/132/132
f 35/97/133 36/98/134 38/99/135 37/100/136
f 37/133/137 38/134/138 40/135/139 39/136/140
f 39/101/141 40/102/142 34/103/143 33/104/144
f 34/65/145 40/66/146 41/67/147 42/68/148
f 40/66/149 38/69/150 43/70/151 41/67/152
f 38/69/153 36/71/154 44/72/155 43/70/156
f 36/71/157 34/65/158 42/68/159 44/72/160
f 39/73/161 33/74/162 46/75/163 45/76/164
f 33/74/165 35/77/166 47/78/167 46/75/168
f 35/77/169 37/79/170 48/80/171 47/78/172
f 37/79/173 39/73/174 45/76/175 48/80/176
f 42/105/177 41/106/178 45/107/179 46/108/180
f 44/137/181 42/138/182 46/139/183 47/140/184
f 43/109/185 44/110/186 47/111/187 48/112/188
f 41/141/189 43/142/190 48/143/191 45/144/192
