# This file uses centimeters as units for non-parametric coordinates.

mtllib floor triming inwards.mtl
g default
v -119.952579 0.598808 -380.942307
v -119.952579 0.598808 -380.258011
v -119.952579 1.283155 -380.258011
v -7.545146 1.283155 -380.258041
v -7.545146 0.598808 -380.942368
v -7.545146 0.598808 -380.258041
v -119.952579 1.888305 -380.942307
v -119.952579 1.888305 -380.258011
v -7.545146 1.888305 -380.258041
v -7.545146 1.888305 -380.942368
v -7.545146 0.598808 -381.626694
v -119.952579 0.598808 -381.626572
v -119.952579 1.283155 -381.626572
v -7.545146 1.283155 -381.626694
v -119.952579 1.283155 -381.382401
v -119.952579 1.723220 -380.942307
v -119.952579 1.587233 -380.963821
v -119.952579 1.464556 -381.026352
v -119.952579 1.367200 -381.123672
v -119.952579 1.304693 -381.246353
v -7.545146 1.283155 -381.382309
v -7.545146 1.304693 -381.246323
v -7.545146 1.367200 -381.123764
v -7.545146 1.464556 -381.026352
v -7.545146 1.587233 -380.963852
v -7.545146 1.723220 -380.942368
v -7.545146 1.283155 -380.566635
v -7.545146 0.907536 -380.942368
v -7.545146 1.057784 -380.942368
v -7.545146 1.283155 -380.717026
v -7.545146 1.208031 -380.942368
v -7.545146 1.283155 -380.867172
v -119.952579 1.888305 -380.491043
v -7.545146 1.888305 -380.490952
v -119.952579 0.828512 -381.626572
v -7.545146 0.828512 -381.626694
v -119.952579 2.256017 -380.258011
v -7.545146 2.256017 -380.258041
v -7.545146 0.598808 -381.967514
v -119.952579 0.598808 -381.967422
v -119.952579 2.256017 -380.351822
v -119.952579 2.237368 -380.421402
v -119.952579 2.186417 -380.472366
v -119.952579 2.116816 -380.491043
v -7.545146 2.256017 -380.351791
v -7.545146 2.116816 -380.490952
v -7.545146 2.186417 -380.472397
v -7.545146 2.237368 -380.421371
v -119.952579 0.809862 -381.897781
v -119.952579 0.758911 -381.948746
v -119.952579 0.689311 -381.967422
v -119.952579 0.828512 -381.828232
v -7.545146 0.689311 -381.967514
v -7.545146 0.758911 -381.948715
v -7.545146 0.809862 -381.897690
v -7.545146 0.828512 -381.828354
v -121.731212 0.598808 -382.560959
v -122.414585 0.598808 -382.525253
v -122.414585 1.283155 -382.525253
v -121.291736 1.283155 -382.583969
v -121.047885 1.283155 -382.596786
v -121.047885 0.828512 -382.596786
v -121.047885 0.598808 -382.596786
v -121.731212 1.723220 -382.560959
v -122.414585 1.888305 -382.525253
v -122.181880 1.888305 -382.537399
v -121.731212 1.888305 -382.560959
v -121.709690 1.587233 -382.562119
v -121.427555 1.304693 -382.576889
v -121.647296 1.464556 -382.565414
v -121.550067 1.367200 -382.570480
v -122.414585 2.256017 -382.525253
v -122.320903 2.256017 -382.530136
v -122.251415 2.237368 -382.533798
v -122.200519 2.186417 -382.536484
v -122.181880 2.116816 -382.537399
v -120.726161 0.758911 -382.613632
v -120.777050 0.809862 -382.610947
v -120.707515 0.689311 -382.614578
v -120.707515 0.598808 -382.614578
v -120.846508 0.828512 -382.607315
v -121.731220 0.598808 -492.367905
v -122.414585 0.598808 -492.332199
v -122.414585 1.283155 -492.332199
v -122.106296 1.283155 -492.348312
v -121.731220 0.907536 -492.367905
v -121.291736 1.283155 -492.390915
v -121.047885 1.283155 -492.403732
v -121.047885 0.828512 -492.403732
v -121.047885 0.598808 -492.403732
v -121.731220 1.723220 -492.367905
v -122.414585 1.888305 -492.332199
v -122.181880 1.888305 -492.344345
v -121.731220 1.888305 -492.367905
v -121.709690 1.587233 -492.369064
v -121.956256 1.283155 -492.356186
v -121.731220 1.057784 -492.367905
v -121.427555 1.304693 -492.383835
v -121.647296 1.464556 -492.372360
v -121.806262 1.283155 -492.364059
v -121.731220 1.208031 -492.367905
v -121.550067 1.367200 -492.377426
v -122.414585 2.256017 -492.332199
v -122.320896 2.256017 -492.337082
v -122.251407 2.237368 -492.340744
v -122.200519 2.186417 -492.343369
v -122.181880 2.116816 -492.344345
v -120.726161 0.758911 -492.420578
v -120.777057 0.809862 -492.417892
v -120.707523 0.689311 -492.421494
v -120.707523 0.598808 -492.421494
v -120.846508 0.828512 -492.414230
vt 0.410224 0.675203
vt 0.410224 0.674312
vt 0.411495 0.673227
vt 0.411972 0.673227
vt 0.411972 0.674530
vt 0.411972 0.675203
vt 0.409140 0.673227
vt 0.408248 0.675203
vt 0.408248 0.673227
vt 0.410224 0.673877
vt 0.411102 0.673165
vt 0.413033 0.674932
vt 0.413033 0.675203
vt 0.412631 0.674530
vt 0.412832 0.674584
vt 0.412979 0.674731
vt 0.409573 0.673227
vt 0.410224 0.671956
vt 0.408248 0.671251
vt 0.408911 0.671251
vt 0.410224 0.671251
vt 0.410224 0.673444
vt 0.410748 0.672984
vt 0.410286 0.672349
vt 0.410007 0.673227
vt 0.408248 0.670267
vt 0.408509 0.670267
vt 0.408710 0.670321
vt 0.408858 0.670468
vt 0.408911 0.670668
vt 0.410467 0.672703
vt 0.368529 0.676813
vt 0.370505 0.676813
vt 0.370505 0.993883
vt 0.368529 0.993883
vt 0.368529 0.670267
vt 0.370505 0.670267
vt 0.372252 0.676813
vt 0.372252 0.993883
vt 0.372252 0.670267
vt 0.373314 0.676813
vt 0.373314 0.993883
vt 0.373314 0.670267
vt 0.395117 0.987336
vt 0.393805 0.987336
vt 0.393805 0.670267
vt 0.395117 0.670267
vt 0.395117 0.990138
vt 0.393805 0.990138
vt 0.388088 0.987364
vt 0.387611 0.987364
vt 0.387611 0.670294
vt 0.388088 0.670294
vt 0.388088 0.992038
vt 0.387611 0.992038
vt 0.387218 0.987360
vt 0.387218 0.670291
vt 0.387218 0.991976
vt 0.386864 0.987351
vt 0.386864 0.670281
vt 0.386864 0.991795
vt 0.386583 0.987336
vt 0.386583 0.670267
vt 0.386583 0.991514
vt 0.380222 0.987339
vt 0.380021 0.987336
vt 0.380021 0.670267
vt 0.380222 0.670269
vt 0.380222 0.993299
vt 0.380021 0.993245
vt 0.379361 0.987336
vt 0.379361 0.670267
vt 0.380369 0.987347
vt 0.380369 0.670277
vt 0.379361 0.993245
vt 0.380369 0.993446
vt 0.401489 0.987339
vt 0.401288 0.987336
vt 0.401288 0.670267
vt 0.401489 0.670269
vt 0.401489 0.989259
vt 0.401288 0.989205
vt 0.401026 0.987336
vt 0.401026 0.670267
vt 0.401636 0.987347
vt 0.401636 0.670277
vt 0.401026 0.989205
vt 0.401636 0.989406
vt 0.602771 0.661956
vt 0.601468 0.661956
vt 0.601468 0.337377
vt 0.602771 0.337377
vt 0.607445 0.667092
vt 0.607377 0.668393
vt 0.924515 0.667092
vt 0.924447 0.668393
vt 0.323744 0.001992
vt 0.325720 0.001992
vt 0.325720 0.326571
vt 0.323744 0.326571
vt 0.319173 0.333680
vt 0.319070 0.331707
vt 0.321768 0.326571
vt 0.321768 0.001992
vt 0.002103 0.333680
vt 0.002000 0.331707
vt 0.318966 0.329734
vt 0.320784 0.326571
vt 0.320783 0.001992
vt 0.001897 0.329734
vt 0.318915 0.328751
vt 0.001845 0.328751
vt 0.275208 0.661956
vt 0.275208 0.337377
vt 0.275914 0.337377
vt 0.275913 0.661956
vt 0.274815 0.661956
vt 0.274815 0.337377
vt 0.278715 0.665119
vt 0.278678 0.665823
vt 0.278657 0.666215
vt 0.274461 0.661956
vt 0.274461 0.337377
vt 0.595785 0.665119
vt 0.595748 0.665823
vt 0.595727 0.666215
vt 0.278639 0.666569
vt 0.274180 0.661956
vt 0.274180 0.337377
vt 0.595709 0.666569
vt 0.332691 0.001992
vt 0.332691 0.326571
vt 0.332420 0.326571
vt 0.332420 0.001992
vt 0.332892 0.326571
vt 0.332892 0.001992
vt 0.338981 0.333409
vt 0.338967 0.333680
vt 0.338991 0.333209
vt 0.333039 0.326571
vt 0.333039 0.001992
vt 0.656051 0.333409
vt 0.656036 0.333680
vt 0.656061 0.333209
vt 0.001845 0.994845
vt 0.001846 0.670267
vt 0.002428 0.670267
vt 0.002428 0.994845
vt 0.002628 0.994845
vt 0.002628 0.670267
vt 0.004677 0.997427
vt 0.004647 0.998008
vt 0.004688 0.997226
vt 0.002776 0.994845
vt 0.002776 0.670267
vt 0.321747 0.997427
vt 0.321717 0.998008
vt 0.321758 0.997226
vt 0.423866 0.673222
vt 0.423866 0.675196
vt 0.421890 0.675196
vt 0.421890 0.674305
vt 0.422974 0.673222
vt 0.420619 0.673222
vt 0.420142 0.675196
vt 0.420142 0.674524
vt 0.420142 0.673222
vt 0.421890 0.673872
vt 0.422541 0.673222
vt 0.421890 0.671953
vt 0.421890 0.671249
vt 0.423203 0.671249
vt 0.423866 0.671249
vt 0.421012 0.673160
vt 0.419081 0.675196
vt 0.419081 0.674925
vt 0.419135 0.674725
vt 0.419282 0.674578
vt 0.419483 0.674524
vt 0.421890 0.673439
vt 0.422107 0.673222
vt 0.421828 0.672346
vt 0.423256 0.670467
vt 0.423404 0.670320
vt 0.423605 0.670267
vt 0.423866 0.670267
vt 0.423203 0.670668
vt 0.421366 0.672980
vt 0.421647 0.672699
vt 0.328809 0.994845
vt 0.328809 0.670267
vt 0.330785 0.670267
vt 0.330785 0.994845
vt 0.332533 0.670267
vt 0.332533 0.994845
vt 0.333594 0.670267
vt 0.333594 0.994845
vt 0.340104 0.670267
vt 0.340104 0.994845
vt 0.339843 0.994845
vt 0.339843 0.670267
vt 0.339642 0.994845
vt 0.339642 0.670267
vt 0.347340 0.670267
vt 0.347340 0.994845
vt 0.346863 0.994845
vt 0.346863 0.670267
vt 0.347733 0.994845
vt 0.347733 0.670267
vt 0.348087 0.994845
vt 0.348087 0.670267
vt 0.355398 0.670267
vt 0.355398 0.994845
vt 0.354085 0.994845
vt 0.354085 0.670267
vt 0.362168 0.670267
vt 0.362168 0.994845
vt 0.361508 0.994845
vt 0.361508 0.670267
vt 0.361307 0.994845
vt 0.361307 0.670267
vn -0.052182 -0.000004 -0.998638
vn -0.052182 -0.000004 -0.998638
vn -0.052182 -0.000004 -0.998638
vn -0.052189 0.000008 -0.998637
vn -0.052273 0.000005 -0.998633
vn 0.000000 1.000000 0.000000
vn 0.000000 1.000000 0.000000
vn 0.000000 1.000000 0.000000
vn 0.000000 1.000000 0.000000
vn 0.000000 -1.000000 0.000000
vn 0.000000 -1.000000 0.000000
vn 0.000000 -1.000000 0.000000
vn 0.000000 -1.000000 0.000000
vn 0.000000 0.000000 1.000000
vn 0.000000 0.000000 1.000000
vn 0.000000 0.000000 1.000000
vn 0.000000 0.000000 1.000000
vn -0.000001 0.000000 -1.000000
vn -0.000001 0.000000 -1.000000
vn -0.000001 0.116242 -0.993221
vn -0.000001 0.116242 -0.993221
vn 0.000000 0.000000 1.000000
vn 0.000000 0.000000 1.000000
vn 0.000000 0.000000 1.000000
vn 0.000000 0.000000 1.000000
vn 1.000000 -0.000006 0.000000
vn 1.000000 -0.000003 0.000000
vn 1.000000 -0.000005 0.000000
vn 1.000000 -0.000006 0.000000
vn 1.000000 -0.000005 0.000000
vn 1.000000 -0.000004 0.000000
vn -0.000000 0.071229 -0.997460
vn -0.000000 0.071229 -0.997460
vn -0.000001 0.000000 -1.000000
vn -0.000001 0.000000 -1.000000
vn 0.000000 -1.000000 0.000000
vn 0.000000 -1.000000 0.000000
vn 0.000000 -1.000000 0.000000
vn 0.000000 -1.000000 0.000000
vn -0.052372 0.000028 -0.998628
vn -0.052365 0.000021 -0.998628
vn -0.052372 0.000028 -0.998628
vn -0.052355 0.000023 -0.998629
vn -0.052341 0.000019 -0.998629
vn 0.000000 0.998400 -0.056545
vn 0.000000 0.998400 -0.056545
vn 0.000000 1.000000 0.000000
vn 0.000000 1.000000 0.000000
vn -0.052193 0.000029 -0.998637
vn -0.052181 0.000018 -0.998638
vn -0.052171 0.000012 -0.998638
vn -0.052175 0.000015 -0.998638
vn -0.052181 0.000018 -0.998638
vn 1.000000 -0.000005 0.000000
vn 1.000000 -0.000003 0.000000
vn 1.000000 -0.000005 0.000000
vn 1.000000 -0.000006 0.000000
vn 1.000000 -0.000006 0.000000
vn 1.000000 -0.000005 0.000000
vn 1.000000 0.000000 0.000000
vn 1.000000 0.000000 0.000000
vn 1.000000 0.000000 0.000000
vn -0.000000 0.951047 -0.309046
vn -0.000000 0.951047 -0.309046
vn -0.000000 0.808958 -0.587867
vn -0.000000 0.808958 -0.587867
vn -0.000000 0.587830 -0.808985
vn -0.000000 0.587830 -0.808985
vn -0.000000 0.308917 -0.951089
vn -0.000000 0.308917 -0.951089
vn -0.052409 0.000209 -0.998626
vn -0.052331 0.000038 -0.998630
vn -0.052252 -0.000141 -0.998634
vn -0.052274 -0.000113 -0.998633
vn -0.052234 0.000003 -0.998635
vn -0.052190 -0.000079 -0.998637
vn -0.052183 -0.000207 -0.998637
vn -0.052226 -0.000170 -0.998635
vn 1.000000 0.000000 0.000000
vn 1.000000 -0.000016 0.000000
vn 1.000000 -0.000019 0.000000
vn 1.000000 -0.000007 0.000000
vn 1.000000 0.000000 0.000000
vn 1.000000 0.000000 0.000000
vn 1.000000 -0.000012 0.000000
vn 1.000000 -0.000016 0.000000
vn 0.000000 0.993547 -0.113424
vn 0.000000 0.993547 -0.113424
vn 0.000000 1.000000 0.000000
vn 0.000000 1.000000 0.000000
vn -0.000001 0.000000 -1.000000
vn -0.000001 0.000000 -1.000000
vn -0.000001 0.000000 -1.000000
vn -0.000001 0.000000 -1.000000
vn 0.000001 0.000000 -1.000000
vn 0.000001 0.000000 -1.000000
vn 0.000001 0.062324 -0.998056
vn 0.000001 0.062324 -0.998056
vn 0.000000 0.000000 1.000000
vn 0.000000 0.000000 1.000000
vn 0.000000 0.000000 1.000000
vn 0.000000 0.000000 1.000000
vn 0.000000 -1.000000 0.000000
vn 0.000000 -1.000000 0.000000
vn 0.000000 -1.000000 0.000000
vn 0.000000 -1.000000 0.000000
vn 0.000000 1.000000 0.000000
vn 0.000000 1.000000 0.000000
vn -0.000000 0.997642 -0.068628
vn -0.000000 0.997642 -0.068628
vn 0.000000 0.258383 -0.966043
vn 0.000000 0.258383 -0.966043
vn 0.000000 0.707411 -0.706803
vn 0.000000 0.707411 -0.706803
vn 0.000000 0.707411 -0.706802
vn 0.000000 0.707411 -0.706802
vn 0.000000 0.965907 -0.258889
vn 0.000000 0.965907 -0.258889
vn -0.000000 0.259964 -0.965618
vn -0.000000 0.259964 -0.965618
vn 0.000000 0.707411 -0.706802
vn 0.000000 0.865821 -0.500354
vn 0.000000 0.865821 -0.500354
vn 0.000000 0.707411 -0.706803
vn -0.052132 -0.000012 -0.998640
vn -0.052132 -0.000012 -0.998640
vn -0.052132 -0.000012 -0.998640
vn -0.052132 -0.000012 -0.998640
vn -0.052132 -0.000012 -0.998640
vn 1.000000 0.000003 0.000000
vn 1.000000 0.000003 0.000000
vn 1.000000 0.000003 0.000000
vn 1.000000 0.000003 0.000000
vn 1.000000 0.000003 0.000000
vn -0.052181 -0.000030 -0.998638
vn -0.052181 -0.000030 -0.998638
vn -0.052181 -0.000030 -0.998638
vn -0.052181 -0.000030 -0.998638
vn -0.052181 -0.000030 -0.998638
vn 1.000000 -0.000013 0.000000
vn 1.000000 -0.000013 0.000000
vn 1.000000 -0.000013 0.000000
vn 1.000000 -0.000013 0.000000
vn 1.000000 -0.000013 0.000000
vn 0.000000 -1.000000 -0.000000
vn 0.000000 -1.000000 -0.000000
vn 0.000000 -1.000000 -0.000000
vn 0.000000 -1.000000 -0.000000
vn -0.677412 0.000000 0.735604
vn -0.677412 0.000000 0.735604
vn -0.677412 0.000000 0.735604
vn -0.677412 0.000000 0.735604
vn 0.000000 1.000000 0.000000
vn 0.000000 1.000000 0.000000
vn 0.000000 1.000000 0.000000
vn 0.000000 1.000000 0.000000
vn 0.663069 0.000000 -0.748558
vn 0.663069 0.000000 -0.748558
vn 0.663069 0.000000 -0.748558
vn 0.663069 0.000000 -0.748558
vn 0.000000 -1.000000 0.000000
vn 0.000000 -1.000000 0.000000
vn 0.000000 -1.000000 0.000000
vn 0.000000 -1.000000 0.000000
vn -0.677412 0.000000 0.735604
vn -0.677412 0.000000 0.735604
vn -0.677412 0.000000 0.735604
vn -0.677412 0.000000 0.735604
vn 0.000000 1.000000 0.000000
vn 0.000000 1.000000 0.000000
vn 0.000000 1.000000 0.000000
vn 0.000000 1.000000 0.000000
vn 0.673064 0.000000 -0.739585
vn 0.673064 0.000000 -0.739585
vn 0.673064 0.000000 -0.739585
vn 0.673064 0.000000 -0.739585
vn 0.668574 0.114174 -0.734829
vn 0.668574 0.114174 -0.734829
vn 0.668574 0.114174 -0.734829
vn 0.668574 0.114174 -0.734829
vn 0.142716 0.976972 -0.158612
vn 0.142716 0.976972 -0.158612
vn 0.142716 0.976972 -0.158612
vn 0.142716 0.976972 -0.158612
vn 0.630880 0.346687 -0.694117
vn 0.630880 0.346687 -0.694117
vn 0.630880 0.346687 -0.694117
vn 0.630880 0.346687 -0.694117
vn 0.385518 0.818223 -0.426483
vn 0.385518 0.818223 -0.426483
vn 0.385518 0.818223 -0.426483
vn 0.385518 0.818223 -0.426483
vn 0.543911 0.586942 -0.599716
vn 0.543911 0.586942 -0.599716
vn 0.543911 0.586942 -0.599716
vn 0.543911 0.586942 -0.599716
vn -0.677412 0.000000 0.735604
vn -0.677412 0.000000 0.735604
vn -0.677412 0.000000 0.735604
vn -0.677412 0.000000 0.735604
vn 0.000000 1.000000 0.000000
vn 0.000000 1.000000 0.000000
vn 0.000000 1.000000 0.000000
vn 0.000000 1.000000 0.000000
vn 0.234556 0.938024 -0.255135
vn 0.234556 0.938024 -0.255135
vn 0.234556 0.938024 -0.255135
vn 0.234556 0.938024 -0.255135
vn 0.547538 0.587275 -0.596079
vn 0.547538 0.587275 -0.596079
vn 0.547538 0.587275 -0.596079
vn 0.547538 0.587275 -0.596079
vn 0.663883 0.190675 -0.723120
vn 0.663883 0.190675 -0.723120
vn 0.663883 0.190675 -0.723120
vn 0.663883 0.190675 -0.723120
vn 0.676233 0.000000 -0.736688
vn 0.676233 0.000000 -0.736688
vn 0.676233 0.000000 -0.736688
vn 0.676233 0.000000 -0.736688
vn 0.528754 0.586897 -0.613165
vn 0.528754 0.586897 -0.613165
vn 0.528754 0.586897 -0.613165
vn 0.528754 0.586897 -0.613165
vn 0.639377 0.190702 -0.744869
vn 0.639377 0.190702 -0.744869
vn 0.639377 0.190702 -0.744869
vn 0.639377 0.190702 -0.744869
vn 0.650831 0.000000 -0.759223
vn 0.650831 0.000000 -0.759223
vn 0.650831 0.000000 -0.759223
vn 0.650831 0.000000 -0.759223
vn 0.000000 -1.000000 0.000000
vn 0.000000 -1.000000 0.000000
vn 0.000000 -1.000000 0.000000
vn 0.000000 -1.000000 0.000000
vn 0.000000 1.000000 0.000000
vn 0.000000 1.000000 0.000000
vn 0.000000 1.000000 0.000000
vn 0.000000 1.000000 0.000000
vn 0.227561 0.937842 -0.262048
vn 0.227561 0.937842 -0.262048
vn 0.227561 0.937842 -0.262048
vn 0.227561 0.937842 -0.262048
vn 0.000000 -1.000000 0.000000
vn 0.000000 -1.000000 0.000000
vn 0.000000 -1.000000 0.000000
vn 0.000000 -1.000000 0.000000
vn -1.000000 0.000000 0.000000
vn -1.000000 0.000000 0.000000
vn -1.000000 0.000000 0.000000
vn -1.000000 0.000000 0.000000
vn 0.000000 1.000000 0.000000
vn 0.000000 1.000000 0.000000
vn 0.000000 1.000000 0.000000
vn 0.000000 1.000000 0.000000
vn 1.000000 0.000000 0.000000
vn 1.000000 0.000000 0.000000
vn 1.000000 0.000000 0.000000
vn 1.000000 0.000000 0.000000
vn 0.000000 -1.000000 0.000000
vn 0.000000 -1.000000 0.000000
vn 0.000000 -1.000000 0.000000
vn 0.000000 -1.000000 0.000000
vn -1.000000 0.000000 0.000000
vn -1.000000 0.000000 0.000000
vn -1.000000 0.000000 0.000000
vn -1.000000 0.000000 0.000000
vn 0.000000 1.000000 0.000000
vn 0.000000 1.000000 0.000000
vn 0.000000 1.000000 0.000000
vn 0.000000 1.000000 0.000000
vn 1.000000 0.000000 -0.000000
vn 1.000000 0.000000 -0.000000
vn 1.000000 0.000000 -0.000000
vn 1.000000 0.000000 -0.000000
vn 0.987701 0.156351 -0.000000
vn 0.987701 0.156351 -0.000000
vn 0.987701 0.156351 -0.000000
vn 0.987701 0.156351 -0.000000
vn 0.156626 0.987658 0.000000
vn 0.156626 0.987658 0.000000
vn 0.156626 0.987658 0.000000
vn 0.156626 0.987658 0.000000
vn 0.891343 0.453329 0.000000
vn 0.891343 0.453329 0.000000
vn 0.891343 0.453329 0.000000
vn 0.891343 0.453329 0.000000
vn 0.454474 0.890760 0.000000
vn 0.454474 0.890760 0.000000
vn 0.454474 0.890760 0.000000
vn 0.454474 0.890760 0.000000
vn 0.707558 0.706655 0.000000
vn 0.707558 0.706655 0.000000
vn 0.707558 0.706655 0.000000
vn 0.707558 0.706655 0.000000
vn -1.000000 0.000000 0.000000
vn -1.000000 0.000000 0.000000
vn -1.000000 0.000000 0.000000
vn -1.000000 0.000000 0.000000
vn 0.000000 1.000000 0.000000
vn 0.000000 1.000000 0.000000
vn 0.000000 1.000000 0.000000
vn 0.000000 1.000000 0.000000
vn 0.259206 0.965822 0.000000
vn 0.259206 0.965822 0.000000
vn 0.259206 0.965822 0.000000
vn 0.259206 0.965822 0.000000
vn 0.707511 0.706702 0.000000
vn 0.707511 0.706702 0.000000
vn 0.707511 0.706702 0.000000
vn 0.707511 0.706702 0.000000
vn 0.965971 0.258649 0.000000
vn 0.965971 0.258649 0.000000
vn 0.965971 0.258649 0.000000
vn 0.965971 0.258649 0.000000
vn 1.000000 0.000000 0.000000
vn 1.000000 0.000000 0.000000
vn 1.000000 0.000000 0.000000
vn 1.000000 0.000000 0.000000
vn 0.707511 0.706702 -0.000000
vn 0.707511 0.706702 -0.000000
vn 0.707511 0.706702 -0.000000
vn 0.707511 0.706702 -0.000000
vn 0.965941 0.258764 -0.000000
vn 0.965941 0.258764 -0.000000
vn 0.965941 0.258764 -0.000000
vn 0.965941 0.258764 -0.000000
vn 1.000000 0.000000 -0.000000
vn 1.000000 0.000000 -0.000000
vn 1.000000 0.000000 -0.000000
vn 1.000000 0.000000 -0.000000
vn 0.000000 -1.000000 -0.000000
vn 0.000000 -1.000000 -0.000000
vn 0.000000 -1.000000 -0.000000
vn 0.000000 -1.000000 -0.000000
vn 0.000000 1.000000 0.000000
vn 0.000000 1.000000 0.000000
vn 0.000000 1.000000 0.000000
vn 0.000000 1.000000 0.000000
vn 0.259329 0.965789 -0.000000
vn 0.259329 0.965789 -0.000000
vn 0.259329 0.965789 -0.000000
vn 0.259329 0.965789 -0.000000
s 1
g hallway_trim_bend_inwards
usemtl initialShadingGroup
f 82/159/1 83/160/2 84/161/3 85/162/4 86/163/5
s off
f 7/89/6 33/90/7 34/91/8 10/92/9
f 5/97/10 6/98/11 2/99/12 1/100/13
f 2/190/14 6/191/15 4/192/16 3/193/17
s 2
f 39/198/18 40/199/19 51/200/20 53/201/21
s off
f 3/193/22 4/192/23 9/194/24 8/195/25
s 3
f 4/1/26 27/2/27 26/3/28 10/4/29 34/5/30 9/6/31
s 4
f 26/204/32 16/205/33 7/206/34 10/207/35
s off
f 5/97/36 1/100/37 12/103/38 11/104/39
s 1
f 82/159/40 86/163/5 87/170/41 88/171/42 89/172/43 90/173/44
s 4
f 15/113/45 21/114/46 14/115/47 13/116/48
s 1
f 91/164/49 85/162/4 84/161/50 92/165/51 93/166/52 94/167/53
s 3
f 21/18/54 28/7/55 5/9/56 11/19/57 36/20/58 14/21/59
f 28/7/55 27/2/27 4/1/60 6/8/61 5/9/62
s 4
f 15/113/45 20/117/63 22/118/64 21/114/46
f 20/117/63 19/122/65 23/123/66 22/118/64
f 19/122/65 18/128/67 24/129/68 23/123/66
f 18/210/67 17/208/69 25/209/70 24/211/68
f 17/208/69 16/205/33 26/204/32 25/209/70
s 1
f 91/164/49 95/174/71 96/168/72 85/162/4
f 85/162/4 96/168/72 97/169/73 86/163/5
f 86/163/5 97/169/73 98/182/74 87/170/41
f 95/174/71 99/188/75 100/180/76 96/168/72
f 96/168/72 100/180/76 101/181/77 97/169/73
f 97/169/73 101/181/77 102/189/78 98/182/74
f 102/189/78 101/181/77 100/180/76 99/188/75
s 3
f 21/18/54 22/24/79 29/17/80 28/7/55
f 28/7/55 29/17/80 30/10/81 27/2/27
f 27/2/27 30/10/81 25/11/82 26/3/28
f 22/24/79 23/31/83 31/25/84 29/17/80
f 29/17/80 31/25/84 32/22/85 30/10/81
f 30/10/81 32/22/85 24/23/86 25/11/82
f 24/23/86 32/22/85 31/25/84 23/31/83
s 10
f 45/131/87 41/132/88 37/133/89 38/134/90
s off
f 36/212/91 35/213/92 13/214/93 14/215/94
s 11
f 34/216/95 33/217/96 44/218/97 46/219/98
s off
f 8/195/99 9/194/100 38/196/101 37/197/102
f 11/104/103 12/103/104 40/108/105 39/109/106
s 12
f 35/145/107 36/146/108 56/147/109 52/148/110
s 11
f 44/218/97 43/220/111 47/221/112 46/219/98
s off
f 43/140/113 42/135/114 48/136/115 47/141/116
s 10
f 42/135/117 41/132/88 45/131/87 48/136/118
s 2
f 51/200/20 50/202/119 54/203/120 53/201/21
s 12
f 50/154/121 49/149/122 55/150/123 54/155/124
f 49/149/122 52/148/110 56/147/109 55/150/123
s 1
f 93/166/52 92/165/51 103/175/125 104/176/126 105/177/127 106/178/128 107/179/129
s 3
f 45/12/130 38/13/131 9/6/31 34/5/30 46/14/132 47/15/133 48/16/134
s 1
f 109/183/135 108/184/136 110/185/137 111/186/138 90/173/44 89/172/43 112/187/139
s 3
f 36/20/58 11/19/57 39/26/140 53/27/141 54/28/142 55/29/143 56/30/144
s off
f 1/100/145 2/99/146 58/101/147 57/102/148
f 2/36/149 3/37/150 59/33/151 58/32/152
f 15/113/153 13/116/154 61/119/155 60/120/156
f 13/48/157 35/49/158 62/45/159 61/44/160
f 12/103/161 1/100/162 57/102/163 63/107/164
f 3/37/165 8/40/166 65/38/167 59/33/168
f 33/90/169 7/89/170 67/93/171 66/94/172
f 7/54/173 16/55/174 64/51/175 67/50/176
f 16/55/177 17/58/178 68/56/179 64/51/180
f 20/117/181 15/113/182 60/120/183 69/121/184
f 17/58/185 18/61/186 70/59/187 68/56/188
f 19/122/189 20/117/190 69/121/191 71/127/192
f 18/61/193 19/64/194 71/62/195 70/59/196
f 8/40/197 37/43/198 72/41/199 65/38/200
f 37/133/201 41/132/202 73/137/203 72/138/204
f 41/132/205 42/135/206 74/139/207 73/137/208
f 42/76/209 43/69/210 75/65/211 74/73/212
f 43/69/213 44/70/214 76/66/215 75/65/216
f 44/70/217 33/75/218 66/71/219 76/66/220
f 49/88/221 50/81/222 77/77/223 78/85/224
f 50/81/225 51/82/226 79/78/227 77/77/228
f 51/82/229 40/87/230 80/83/231 79/78/232
f 40/108/233 12/103/234 63/107/235 80/111/236
f 35/145/237 52/148/238 81/151/239 62/152/240
f 52/148/241 49/149/242 78/153/243 81/151/244
f 57/102/245 58/101/246 83/105/247 82/106/248
f 58/32/249 59/33/250 84/34/251 83/35/252
f 60/120/253 61/119/254 88/124/255 87/125/256
f 61/44/257 62/45/258 89/46/259 88/47/260
f 63/107/261 57/102/262 82/106/263 90/110/264
f 59/33/265 65/38/266 92/39/267 84/34/268
f 66/94/269 67/93/270 94/95/271 93/96/272
f 67/50/273 64/51/274 91/52/275 94/53/276
f 64/51/277 68/56/278 95/57/279 91/52/280
f 69/121/281 60/120/282 87/125/283 98/126/284
f 68/56/285 70/59/286 99/60/287 95/57/288
f 71/127/289 69/121/290 98/126/291 102/130/292
f 70/59/293 71/62/294 102/63/295 99/60/296
f 65/38/297 72/41/298 103/42/299 92/39/300
f 72/138/301 73/137/302 104/142/303 103/143/304
f 73/137/305 74/139/306 105/144/307 104/142/308
f 74/73/309 75/65/310 106/68/311 105/74/312
f 75/65/313 76/66/314 107/67/315 106/68/316
f 76/66/317 66/71/318 93/72/319 107/67/320
f 78/85/321 77/77/322 108/80/323 109/86/324
f 77/77/325 79/78/326 110/79/327 108/80/328
f 79/78/329 80/83/330 111/84/331 110/79/332
f 80/111/333 63/107/334 90/110/335 111/112/336
f 62/152/337 81/151/338 112/156/339 89/157/340
f 81/151/341 78/153/342 109/158/343 112/156/344
