# This file uses centimeters as units for non-parametric coordinates.

mtllib floor triming straight.mtl
g default
v -86.397598 0.598808 -405.566895
v -85.713257 0.598808 -405.566895
v -85.713257 1.283155 -405.566895
v -85.713257 1.283155 -520.532074
v -86.397598 0.598808 -520.532074
v -85.713257 0.598808 -520.532074
v -86.397598 1.888305 -405.566895
v -85.713257 1.888305 -405.566895
v -85.713257 1.888305 -520.532074
v -86.397598 1.888305 -520.532074
v -87.081848 0.598808 -520.532074
v -87.081848 0.598808 -405.566895
v -87.081848 1.283155 -405.566895
v -87.081848 1.283155 -520.532074
v -86.837654 1.283155 -405.566895
v -86.397598 0.907536 -405.566895
v -86.021973 1.283155 -405.566895
v -86.397598 1.723220 -405.566895
v -86.419136 1.587233 -405.566895
v -86.481644 1.464556 -405.566895
v -86.579002 1.367200 -405.566895
v -86.701668 1.304693 -405.566895
v -86.837654 1.283155 -520.532074
v -86.701668 1.304693 -520.532074
v -86.579002 1.367200 -520.532074
v -86.481644 1.464556 -520.532074
v -86.419136 1.587233 -520.532074
v -86.397598 1.723220 -520.532074
v -86.021973 1.283155 -520.532074
v -86.397598 0.907536 -520.532074
v -86.172226 1.283155 -405.566895
v -86.397598 1.057784 -405.566895
v -86.322472 1.283155 -405.566895
v -86.397598 1.208031 -405.566895
v -86.397598 1.057784 -520.532074
v -86.172226 1.283155 -520.532074
v -86.397598 1.208031 -520.532074
v -86.322472 1.283155 -520.532074
v -85.946297 1.888305 -405.566895
v -85.946297 1.888305 -520.532074
v -87.081848 0.828512 -405.566895
v -87.081848 0.828512 -520.532074
v -85.713257 2.256017 -405.566895
v -85.713257 2.256017 -520.532074
v -87.422684 0.598808 -520.532074
v -87.422684 0.598808 -405.566895
v -85.807091 2.256017 -405.566895
v -85.876694 2.237368 -405.566895
v -85.927643 2.186417 -405.566895
v -85.946297 2.116816 -405.566895
v -85.807091 2.256017 -520.532074
v -85.946297 2.116816 -520.532074
v -85.927643 2.186417 -520.532074
v -85.876694 2.237368 -520.532074
v -87.353081 0.809862 -405.566895
v -87.404030 0.758911 -405.566895
v -87.422684 0.689311 -405.566895
v -87.283478 0.828512 -405.566895
v -87.422684 0.689311 -520.532074
v -87.404030 0.758911 -520.532074
v -87.353081 0.809862 -520.532074
v -87.283478 0.828512 -520.532074
vt 0.375000 0.000000
vt 0.625000 0.000000
vt 0.625000 0.750000
vt 0.375000 1.000000
vt 0.625000 1.000000
vt 0.875000 0.000000
vt 0.875000 0.250000
vt 0.125000 0.000000
vt 0.625000 0.500000
vt 0.375000 0.000000
vt 0.625000 0.250000
vt 0.375002 0.250000
vt 0.125000 0.250000
vt 0.125000 0.112783
vt 0.125000 0.250000
vt 0.625000 0.500000
vt 0.375002 0.750000
vt 0.375000 0.250000
vt 0.375000 0.500000
vt 0.375000 0.250000
vt 0.375000 0.500000
vt 0.375000 0.250000
vt 0.512220 0.250000
vt 0.375002 0.112782
vt 0.375000 0.500000
vt 0.375002 0.637218
vt 0.512220 0.500000
vt 0.374624 0.250000
vt 0.375000 0.250376
vt 0.374247 0.250000
vt 0.375000 0.250753
vt 0.373871 0.250000
vt 0.375000 0.251129
vt 0.374458 0.249915
vt 0.375000 0.500000
vt 0.125000 0.250000
vt 0.375000 0.500000
vt 0.125000 0.250000
vt 0.375127 0.500056
vt 0.375149 0.500049
vt 0.465065 0.233544
vt 0.391210 0.159903
vt 0.422506 0.223644
vt 0.402538 0.203435
vt 0.391464 0.590206
vt 0.465113 0.516384
vt 0.401373 0.547865
vt 0.421598 0.527940
vt 0.500001 0.250000
vt 0.625000 0.500000
vt 0.375000 0.000000
vt 0.125000 0.125000
vt 0.500001 0.250000
vt 0.574666 0.500000
vt 0.375000 0.049250
vt 0.125000 0.125000
vt 0.625000 0.250000
vt 0.625000 0.250000
vt 0.574666 0.250000
vt 0.500000 0.500000
vt 0.500000 0.500000
vt 0.375000 0.125000
vt 0.375000 0.125000
vt 0.125000 0.000000
vt 0.125000 0.000000
vt 0.125000 0.049250
vt 0.549778 0.250000
vt 0.524889 0.250000
vt 0.524875 0.500000
vt 0.549751 0.500000
vt 0.375000 0.099766
vt 0.375000 0.074512
vt 0.125000 0.074500
vt 0.125000 0.099750
vn -0.000005 0.000000 1.000000
vn -0.000005 0.000000 1.000000
vn -0.000005 0.000000 1.000000
vn -0.000004 0.000000 1.000000
vn 0.000002 0.000000 1.000000
vn 0.000000 1.000000 0.000000
vn 0.000000 1.000000 0.000000
vn 0.000000 1.000000 0.000000
vn 0.000000 1.000000 0.000000
vn 0.000000 -1.000000 0.000000
vn 0.000000 -1.000000 0.000000
vn 0.000000 -1.000000 0.000000
vn 0.000000 -1.000000 0.000000
vn 1.000000 0.000000 0.000000
vn 1.000000 0.000000 0.000000
vn 1.000000 0.000000 0.000000
vn 1.000000 0.000000 0.000000
vn -1.000000 0.000000 0.000000
vn -1.000000 0.000000 0.000000
vn -0.993281 0.115728 0.000000
vn -0.993281 0.115728 0.000000
vn 1.000000 0.000000 0.000000
vn 1.000000 0.000000 0.000000
vn 1.000000 0.000000 0.000000
vn 1.000000 0.000000 0.000000
vn 0.000000 0.000000 -1.000000
vn 0.000000 0.000000 -1.000000
vn 0.000000 0.000000 -1.000000
vn 0.000000 0.000000 -1.000000
vn 0.000000 0.000000 -1.000000
vn 0.000000 0.000000 -1.000000
vn -0.997451 0.071355 0.000000
vn -0.997451 0.071355 0.000000
vn -1.000000 0.000000 0.000000
vn -1.000000 0.000000 0.000000
vn 0.000000 -1.000000 0.000000
vn 0.000000 -1.000000 0.000000
vn 0.000000 -1.000000 0.000000
vn 0.000000 -1.000000 0.000000
vn 0.000010 0.000000 1.000000
vn 0.000009 0.000000 1.000000
vn 0.000010 0.000000 1.000000
vn 0.000009 0.000000 1.000000
vn 0.000009 0.000000 1.000000
vn -0.056562 0.998399 0.000000
vn -0.056562 0.998399 0.000000
vn 0.000000 1.000000 0.000000
vn 0.000000 1.000000 0.000000
vn -0.000004 0.000000 1.000000
vn -0.000006 0.000000 1.000000
vn -0.000007 0.000000 1.000000
vn -0.000006 0.000000 1.000000
vn -0.000006 0.000000 1.000000
vn 0.000005 0.000000 -1.000000
vn 0.000002 0.000000 -1.000000
vn 0.000005 0.000000 -1.000000
vn 0.000003 0.000000 -1.000000
vn 0.000004 0.000000 -1.000000
vn 0.000005 0.000000 -1.000000
vn 0.000000 0.000000 -1.000000
vn 0.000000 0.000000 -1.000000
vn 0.000000 0.000000 -1.000000
vn -0.309030 0.951052 0.000000
vn -0.309030 0.951052 0.000000
vn -0.587800 0.809006 0.000000
vn -0.587800 0.809006 0.000000
vn -0.809011 0.587793 0.000000
vn -0.809011 0.587793 0.000000
vn -0.951056 0.309018 0.000000
vn -0.951056 0.309018 0.000000
vn 0.000026 0.000000 1.000000
vn 0.000015 0.000000 1.000000
vn 0.000003 0.000000 1.000000
vn 0.000007 0.000000 1.000000
vn 0.000000 0.000000 1.000000
vn 0.000000 0.000000 1.000000
vn 0.000012 0.000000 1.000000
vn 0.000016 0.000000 1.000000
vn 0.000007 0.000000 -1.000000
vn 0.000003 0.000000 -1.000000
vn -0.000006 0.000000 -1.000000
vn -0.000013 0.000000 -1.000000
vn 0.000016 0.000000 -1.000000
vn 0.000012 0.000000 -1.000000
vn -0.000023 0.000000 -1.000000
vn -0.000031 0.000000 -1.000000
vn -0.113372 0.993553 0.000000
vn -0.113372 0.993553 0.000000
vn 0.000000 1.000000 0.000000
vn 0.000000 1.000000 0.000000
vn -1.000000 0.000000 0.000000
vn -1.000000 0.000000 0.000000
vn -1.000000 0.000000 0.000000
vn -1.000000 0.000000 0.000000
vn -1.000000 0.000000 0.000000
vn -1.000000 0.000000 0.000000
vn -0.998048 0.062451 0.000000
vn -0.998048 0.062451 0.000000
vn 1.000000 0.000000 0.000000
vn 1.000000 0.000000 0.000000
vn 1.000000 0.000000 0.000000
vn 1.000000 0.000000 0.000000
vn 0.000000 -1.000000 0.000000
vn 0.000000 -1.000000 0.000000
vn 0.000000 -1.000000 0.000000
vn 0.000000 -1.000000 0.000000
vn 0.000000 1.000000 0.000000
vn 0.000000 1.000000 0.000000
vn -0.068596 0.997645 0.000000
vn -0.068596 0.997645 0.000000
vn -0.965910 0.258878 0.000000
vn -0.965910 0.258878 0.000000
vn -0.707120 0.707093 0.000000
vn -0.707120 0.707093 0.000000
vn -0.707120 0.707093 0.000000
vn -0.707120 0.707093 0.000000
vn -0.258810 0.965928 0.000000
vn -0.258810 0.965928 0.000000
vn -0.965910 0.258878 0.000000
vn -0.965910 0.258878 0.000000
vn -0.707120 0.707093 0.000000
vn -0.499997 0.866027 0.000000
vn -0.499997 0.866027 0.000000
vn -0.707120 0.707093 0.000000
vn -0.000012 0.000000 1.000000
vn -0.000012 0.000000 1.000000
vn -0.000012 0.000000 1.000000
vn -0.000012 0.000000 1.000000
vn -0.000012 0.000000 1.000000
vn 0.000001 0.000000 -1.000000
vn 0.000001 0.000000 -1.000000
vn 0.000001 0.000000 -1.000000
vn 0.000001 0.000000 -1.000000
vn 0.000001 0.000000 -1.000000
vn 0.000002 0.000000 1.000000
vn 0.000002 0.000000 1.000000
vn 0.000002 0.000000 1.000000
vn 0.000002 0.000000 1.000000
vn 0.000002 0.000000 1.000000
vn -0.000006 0.000000 -1.000000
vn -0.000006 0.000000 -1.000000
vn -0.000006 0.000000 -1.000000
vn -0.000006 0.000000 -1.000000
vn -0.000006 0.000000 -1.000000
s 1
g hallway_trim
usemtl initialShadingGroup
f 1/1/1 2/2/2 3/11/3 17/23/4 16/24/5
s off
f 7/12/6 39/49/7 40/60/8 10/19/9
f 5/17/10 6/3/11 2/5/12 1/4/13
f 2/2/14 6/6/15 4/7/16 3/11/17
s 2
f 45/65/18 46/51/19 57/55/20 59/66/21
s off
f 3/11/22 4/16/23 9/9/24 8/57/25
s 3
f 4/16/26 29/27/27 28/21/28 10/19/29 40/60/30 9/9/31
s 4
f 28/21/32 18/22/33 7/12/34 10/19/35
s off
f 5/8/36 1/1/37 12/10/38 11/64/39
s 1
f 1/1/40 16/24/5 15/20/41 13/18/42 41/62/43 12/10/44
s 4
f 15/20/45 23/13/46 14/15/47 13/18/48
s 1
f 18/22/49 17/23/4 3/11/50 8/57/51 39/49/52 7/12/53
s 3
f 23/13/54 30/14/55 5/8/56 11/64/57 42/52/58 14/15/59
f 30/26/55 29/27/27 4/16/60 6/3/61 5/17/62
s 4
f 15/20/45 22/34/63 24/36/64 23/13/46
f 22/34/63 21/32/65 25/38/66 24/36/64
f 21/33/65 20/31/67 26/39/68 25/37/66
f 20/31/67 19/29/69 27/40/70 26/39/68
f 19/29/69 18/22/33 28/21/32 27/40/70
s 1
f 18/22/49 19/28/71 31/41/72 17/23/4
f 17/23/4 31/41/72 32/42/73 16/24/5
f 16/24/5 32/42/73 22/34/74 15/20/41
f 19/28/71 20/30/75 33/43/76 31/41/72
f 31/41/72 33/43/76 34/44/77 32/42/73
f 32/42/73 34/44/77 21/32/78 22/34/74
f 21/32/78 34/44/77 33/43/76 20/30/75
s 3
f 23/25/54 24/35/79 35/45/80 30/26/55
f 30/26/55 35/45/80 36/46/81 29/27/27
f 29/27/27 36/46/81 27/40/82 28/21/28
f 24/35/79 25/37/83 37/47/84 35/45/80
f 35/45/80 37/47/84 38/48/85 36/46/81
f 36/46/81 38/48/85 26/39/86 27/40/82
f 26/39/86 38/48/85 37/47/84 25/37/83
s 10
f 51/54/87 47/59/88 43/58/89 44/50/90
s off
f 42/52/91 41/62/92 13/18/93 14/15/94
s 11
f 40/60/95 39/49/96 50/53/97 52/61/98
s off
f 8/57/99 9/9/100 44/50/101 43/58/102
f 11/64/103 12/10/104 46/51/105 45/65/106
s 12
f 41/62/107 42/52/108 62/56/109 58/63/110
s 11
f 50/53/97 49/68/111 53/69/112 52/61/98
s off
f 49/68/113 48/67/114 54/70/115 53/69/116
s 10
f 48/67/117 47/59/88 51/54/87 54/70/118
s 2
f 57/55/20 56/72/119 60/73/120 59/66/21
s 12
f 56/72/121 55/71/122 61/74/123 60/73/124
f 55/71/122 58/63/110 62/56/109 61/74/123
s 1
f 39/49/52 8/57/51 43/58/125 47/59/126 48/67/127 49/68/128 50/53/129
s 3
f 51/54/130 44/50/131 9/9/31 40/60/30 52/61/132 53/69/133 54/70/134
s 1
f 55/71/135 56/72/136 57/55/137 46/51/138 12/10/44 41/62/43 58/63/139
s 3
f 42/52/58 11/64/57 45/65/140 59/66/141 60/73/142 61/74/143 62/56/144
