# This file uses centimeters as units for non-parametric coordinates.

mtllib floor triming outwards.mtl
g default
v -93.575867 0.598808 -392.463989
v -92.891533 0.598808 -392.463989
v -92.891533 1.283155 -392.463989
v -92.891533 1.283155 -507.628540
v -93.575867 0.598808 -507.628540
v -92.891533 0.598808 -507.628540
v -93.575867 1.888305 -392.463989
v -92.891533 1.888305 -392.463989
v -92.891533 1.888305 -507.628540
v -93.575867 1.888305 -507.628540
v -94.260124 0.598808 -507.628540
v -94.260124 0.598808 -392.463989
v -94.260124 1.283155 -392.463989
v -94.260124 1.283155 -507.628540
v -94.015930 1.283155 -392.463989
v -93.575867 1.723220 -392.463989
v -93.597404 1.587233 -392.463989
v -93.659912 1.464556 -392.463989
v -93.757271 1.367200 -392.463989
v -93.879936 1.304693 -392.463989
v -94.015930 1.283155 -507.628540
v -93.879936 1.304693 -507.628540
v -93.757271 1.367200 -507.628540
v -93.659912 1.464556 -507.628540
v -93.597404 1.587233 -507.628540
v -93.575867 1.723220 -507.628540
v -93.200241 1.283155 -507.628540
v -93.575867 0.907536 -507.628540
v -93.575867 1.057784 -507.628540
v -93.350494 1.283155 -507.628540
v -93.575867 1.208031 -507.628540
v -93.500740 1.283155 -507.628540
v -93.124565 1.888305 -392.463989
v -93.124565 1.888305 -507.628540
v -94.260124 0.828512 -392.463989
v -94.260124 0.828512 -507.628540
v -92.891533 2.256017 -392.463989
v -92.891533 2.256017 -507.628540
v -94.600952 0.598808 -507.628540
v -94.600952 0.598808 -392.463989
v -92.985359 2.256017 -392.463989
v -93.054962 2.237368 -392.463989
v -93.105919 2.186417 -392.463989
v -93.124565 2.116816 -392.463989
v -92.985359 2.256017 -507.628540
v -93.124565 2.116816 -507.628540
v -93.105919 2.186417 -507.628540
v -93.054962 2.237368 -507.628540
v -94.531349 0.809862 -392.463989
v -94.582306 0.758911 -392.463989
v -94.600952 0.689311 -392.463989
v -94.461746 0.828512 -392.463989
v -94.600952 0.689311 -507.628540
v -94.582306 0.758911 -507.628540
v -94.531349 0.809862 -507.628540
v -94.461746 0.828512 -507.628540
v -93.053841 0.598808 -391.645630
v -92.710762 0.598808 -392.237793
v -92.710762 1.283155 -392.237793
v -93.274445 1.283155 -391.264862
v -93.396873 1.283155 -391.053558
v -93.396873 0.828512 -391.053558
v -93.396873 0.598808 -391.053558
v -93.053841 1.723220 -391.645630
v -92.710762 1.888305 -392.237793
v -92.827591 1.888305 -392.036163
v -93.053841 1.888305 -391.645630
v -93.064636 1.587233 -391.626984
v -93.206276 1.304693 -391.382538
v -93.095978 1.464556 -391.572906
v -93.144775 1.367200 -391.488678
v -92.710762 2.256017 -392.237793
v -92.757805 2.256017 -392.156616
v -92.792702 2.237368 -392.096375
v -92.818245 2.186417 -392.052246
v -92.827591 2.116816 -392.036163
v -93.558380 0.758911 -390.774811
v -93.532845 0.809862 -390.818909
v -93.567741 0.689311 -390.758698
v -93.567741 0.598808 -390.758698
v -93.497940 0.828512 -390.879150
v 24.901253 0.598808 -391.526001
v 24.917046 0.598808 -392.210175
v 24.917046 1.283155 -392.210175
v 24.909920 1.283155 -391.901520
v 24.901253 0.907536 -391.526001
v 24.891083 1.283155 -391.086060
v 24.885468 1.283155 -390.841888
v 24.885468 0.828512 -390.841888
v 24.885468 0.598808 -390.841888
v 24.901253 1.723220 -391.526001
v 24.917046 1.888305 -392.210175
v 24.911667 1.888305 -391.977203
v 24.901253 1.888305 -391.526001
v 24.900764 1.587233 -391.504456
v 24.906448 1.283155 -391.751343
v 24.901253 1.057784 -391.526001
v 24.894218 1.304693 -391.222015
v 24.899307 1.464556 -391.441986
v 24.902985 1.283155 -391.601074
v 24.901253 1.208031 -391.526001
v 24.897057 1.367200 -391.344635
v 24.917046 2.256017 -392.210175
v 24.914871 2.256017 -392.116394
v 24.913284 2.237368 -392.046783
v 24.912109 2.186417 -391.995819
v 24.911667 2.116816 -391.977203
v 24.878006 0.758911 -390.519836
v 24.879181 0.809862 -390.570770
v 24.877563 0.689311 -390.501221
v 24.877563 0.598808 -390.501221
v 24.880798 0.828512 -390.640381
vt 0.397588 0.672277
vt 0.397588 0.670377
vt 0.399488 0.670377
vt 0.399488 0.671234
vt 0.398445 0.672277
vt 0.400711 0.672277
vt 0.401169 0.670377
vt 0.401169 0.671024
vt 0.401169 0.672277
vt 0.399488 0.671651
vt 0.398863 0.672277
vt 0.399488 0.673499
vt 0.399488 0.674177
vt 0.398226 0.674177
vt 0.397588 0.674177
vt 0.400333 0.672337
vt 0.402190 0.670377
vt 0.402190 0.670638
vt 0.402139 0.670831
vt 0.401997 0.670972
vt 0.401804 0.671024
vt 0.399488 0.672069
vt 0.399280 0.672277
vt 0.399548 0.673122
vt 0.398174 0.674930
vt 0.398033 0.675072
vt 0.397839 0.675123
vt 0.397588 0.675123
vt 0.398226 0.674737
vt 0.399992 0.672511
vt 0.399722 0.672781
vt 0.375913 0.990211
vt 0.375913 0.670377
vt 0.377814 0.670377
vt 0.377814 0.990211
vt 0.379494 0.670377
vt 0.379494 0.990211
vt 0.377814 0.990839
vt 0.375913 0.990839
vt 0.380516 0.670377
vt 0.380516 0.990211
vt 0.379494 0.990839
vt 0.380516 0.990839
vt 0.347014 0.994947
vt 0.347014 0.675113
vt 0.347265 0.675113
vt 0.347265 0.994947
vt 0.347014 0.670377
vt 0.347265 0.670377
vt 0.347459 0.675113
vt 0.347459 0.994947
vt 0.347459 0.670422
vt 0.347600 0.675113
vt 0.347600 0.994947
vt 0.347600 0.670544
vt 0.362452 0.992920
vt 0.362452 0.673086
vt 0.362911 0.673086
vt 0.362911 0.992920
vt 0.362075 0.673086
vt 0.362075 0.992920
vt 0.362452 0.670813
vt 0.362911 0.670813
vt 0.362075 0.670761
vt 0.361734 0.673086
vt 0.361734 0.992920
vt 0.361734 0.670611
vt 0.361464 0.673086
vt 0.361464 0.992920
vt 0.361464 0.670377
vt 0.354239 0.994128
vt 0.354239 0.674294
vt 0.355501 0.674294
vt 0.355501 0.994128
vt 0.354239 0.670377
vt 0.355501 0.670377
vt 0.368688 0.991399
vt 0.368688 0.671565
vt 0.369323 0.671565
vt 0.369323 0.991399
vt 0.368688 0.670377
vt 0.369323 0.670377
vt 0.369516 0.671565
vt 0.369516 0.991399
vt 0.369516 0.670422
vt 0.369658 0.671565
vt 0.369658 0.991399
vt 0.369658 0.670544
vt 0.275057 0.666678
vt 0.275057 0.665425
vt 0.594891 0.665425
vt 0.594891 0.666678
vt 0.272785 0.665228
vt 0.273869 0.664600
vt 0.272452 0.337644
vt 0.273705 0.337615
vt 0.001846 0.331069
vt 0.001846 0.329169
vt 0.321680 0.329169
vt 0.321680 0.331069
vt 0.322308 0.328667
vt 0.323953 0.329620
vt 0.321680 0.332970
vt 0.001846 0.332970
vt 0.322385 0.001992
vt 0.324285 0.002036
vt 0.325597 0.330572
vt 0.321680 0.333916
vt 0.001846 0.333916
vt 0.326185 0.002080
vt 0.326416 0.331047
vt 0.327131 0.002102
vt 0.605082 0.667585
vt 0.924916 0.667585
vt 0.924916 0.668263
vt 0.605082 0.668263
vt 0.605082 0.667207
vt 0.924916 0.667207
vt 0.601165 0.665866
vt 0.601752 0.665526
vt 0.602079 0.665336
vt 0.605082 0.666866
vt 0.924916 0.666866
vt 0.600577 0.337373
vt 0.601255 0.337357
vt 0.601633 0.337349
vt 0.602373 0.665166
vt 0.601973 0.337341
vt 0.602607 0.665030
vt 0.602244 0.337335
vt 0.322980 0.997815
vt 0.003146 0.997815
vt 0.003146 0.997554
vt 0.322980 0.997554
vt 0.003146 0.998008
vt 0.322980 0.998008
vt 0.002293 0.997183
vt 0.002518 0.997052
vt 0.002125 0.997280
vt 0.002181 0.670383
vt 0.002441 0.670377
vt 0.001988 0.670388
vt 0.002003 0.997351
vt 0.001846 0.670391
vt 0.339770 0.332882
vt 0.659604 0.332882
vt 0.659604 0.333442
vt 0.339770 0.333442
vt 0.339770 0.333635
vt 0.659604 0.333635
vt 0.335368 0.330765
vt 0.335853 0.330485
vt 0.335201 0.330862
vt 0.334705 0.002005
vt 0.335265 0.001992
vt 0.334512 0.002010
vt 0.335079 0.330933
vt 0.334370 0.002013
vt 0.389452 0.670377
vt 0.389452 0.671234
vt 0.388230 0.672278
vt 0.387772 0.672278
vt 0.387772 0.671024
vt 0.387772 0.670377
vt 0.390496 0.672278
vt 0.391353 0.670377
vt 0.391353 0.672278
vt 0.389452 0.671652
vt 0.388608 0.672337
vt 0.386751 0.670638
vt 0.386751 0.670377
vt 0.387137 0.671024
vt 0.386944 0.670973
vt 0.386802 0.670831
vt 0.390078 0.672278
vt 0.389452 0.673500
vt 0.391353 0.674178
vt 0.390715 0.674178
vt 0.389452 0.674178
vt 0.389452 0.672069
vt 0.388949 0.672511
vt 0.389393 0.673122
vt 0.389661 0.672278
vt 0.391353 0.675125
vt 0.391102 0.675125
vt 0.390908 0.675073
vt 0.390767 0.674931
vt 0.390715 0.674738
vt 0.389219 0.672781
vt 0.340779 0.997052
vt 0.338878 0.997052
vt 0.338878 0.670377
vt 0.340779 0.670377
vt 0.337198 0.997052
vt 0.337198 0.670377
vt 0.336177 0.997052
vt 0.336177 0.670377
vt 0.260636 0.666108
vt 0.259373 0.666108
vt 0.259373 0.337616
vt 0.260636 0.337616
vt 0.253687 0.665199
vt 0.253229 0.665199
vt 0.253229 0.337616
vt 0.253687 0.337616
vt 0.252851 0.665229
vt 0.252851 0.337617
vt 0.252510 0.665316
vt 0.252510 0.337621
vt 0.329780 0.997337
vt 0.329586 0.997363
vt 0.329586 0.670378
vt 0.329780 0.670377
vt 0.328952 0.997363
vt 0.328952 0.670378
vt 0.266766 0.666536
vt 0.266573 0.666562
vt 0.266573 0.337617
vt 0.266766 0.337616
vt 0.266322 0.666562
vt 0.266322 0.337617
vn 0.999734 0.000000 0.023077
vn 0.999734 0.000000 0.023077
vn 0.999734 0.000000 0.023077
vn 0.999734 0.000003 0.023077
vn 0.999734 0.000010 0.023069
vn 0.000000 1.000000 0.000000
vn 0.000000 1.000000 0.000000
vn 0.000000 1.000000 0.000000
vn 0.000000 1.000000 0.000000
vn 0.000000 -1.000000 0.000000
vn 0.000000 -1.000000 0.000000
vn 0.000000 -1.000000 0.000000
vn 0.000000 -1.000000 0.000000
vn 1.000000 0.000000 0.000000
vn 1.000000 0.000000 0.000000
vn 1.000000 0.000000 0.000000
vn 1.000000 0.000000 0.000000
vn -1.000000 0.000000 0.000000
vn -1.000000 0.000000 0.000000
vn -0.993286 0.115686 0.000000
vn -0.993286 0.115686 0.000000
vn 1.000000 0.000000 0.000000
vn 1.000000 0.000000 0.000000
vn 1.000000 0.000000 0.000000
vn 1.000000 0.000000 0.000000
vn 0.000000 0.000000 -1.000000
vn 0.000003 0.000000 -1.000000
vn 0.000000 0.000000 -1.000000
vn 0.000000 0.000000 -1.000000
vn 0.000000 0.000000 -1.000000
vn 0.000000 0.000000 -1.000000
vn -0.997452 0.071343 0.000000
vn -0.997452 0.071343 0.000000
vn -1.000000 0.000000 0.000000
vn -1.000000 0.000000 0.000000
vn 0.000000 -1.000000 0.000000
vn 0.000000 -1.000000 0.000000
vn 0.000000 -1.000000 0.000000
vn 0.000000 -1.000000 0.000000
vn 0.999734 0.000020 0.023059
vn 0.999734 0.000019 0.023060
vn 0.999734 0.000020 0.023059
vn 0.999734 0.000016 0.023070
vn 0.999734 0.000012 0.023079
vn -0.056561 0.998399 0.000000
vn -0.056561 0.998399 0.000000
vn 0.000000 1.000000 0.000000
vn 0.000000 1.000000 0.000000
vn 0.999734 0.000005 0.023076
vn 0.999734 0.000006 0.023078
vn 0.999734 0.000003 0.023076
vn 0.999734 0.000004 0.023077
vn 0.999734 0.000006 0.023078
vn -0.000006 0.000000 -1.000000
vn -0.000000 0.000000 -1.000000
vn -0.000005 0.000000 -1.000000
vn -0.000003 0.000000 -1.000000
vn -0.000004 0.000000 -1.000000
vn -0.000005 0.000000 -1.000000
vn 0.000005 0.000000 -1.000000
vn 0.000005 0.000000 -1.000000
vn 0.000005 0.000000 -1.000000
vn -0.309020 0.951056 0.000000
vn -0.309020 0.951056 0.000000
vn -0.587794 0.809011 0.000000
vn -0.587794 0.809011 0.000000
vn -0.809008 0.587797 0.000000
vn -0.809008 0.587797 0.000000
vn -0.951059 0.309009 0.000000
vn -0.951059 0.309009 0.000000
vn 0.999734 -0.000007 0.023065
vn 0.999734 0.000013 0.023071
vn 0.999733 0.000016 0.023094
vn 0.999733 0.000000 0.023106
vn 0.999733 -0.000016 0.023103
vn 0.999733 -0.000012 0.023088
vn 0.999733 0.000000 0.023103
vn 0.999733 0.000000 0.023124
vn -0.000026 0.000000 -1.000000
vn 0.000001 0.000000 -1.000000
vn 0.000016 0.000000 -1.000000
vn 0.000000 0.000000 -1.000000
vn 0.000000 0.000000 -1.000000
vn 0.000000 0.000000 -1.000000
vn 0.000000 0.000000 -1.000000
vn 0.000000 0.000000 -1.000000
vn -0.113377 0.993552 0.000000
vn -0.113377 0.993552 0.000000
vn 0.000000 1.000000 0.000000
vn 0.000000 1.000000 0.000000
vn -1.000000 0.000000 0.000000
vn -1.000000 0.000000 0.000000
vn -1.000000 0.000000 0.000000
vn -1.000000 0.000000 0.000000
vn -1.000000 0.000000 0.000000
vn -1.000000 0.000000 0.000000
vn -0.998050 0.062428 0.000000
vn -0.998050 0.062428 0.000000
vn 1.000000 0.000000 0.000000
vn 1.000000 0.000000 0.000000
vn 1.000000 0.000000 0.000000
vn 1.000000 0.000000 0.000000
vn 0.000000 -1.000000 0.000000
vn 0.000000 -1.000000 0.000000
vn 0.000000 -1.000000 0.000000
vn 0.000000 -1.000000 0.000000
vn 0.000000 1.000000 0.000000
vn 0.000000 1.000000 0.000000
vn -0.068598 0.997644 0.000000
vn -0.068598 0.997644 0.000000
vn -0.965934 0.258787 0.000000
vn -0.965934 0.258787 0.000000
vn -0.707082 0.707132 0.000000
vn -0.707082 0.707132 0.000000
vn -0.707082 0.707132 0.000000
vn -0.707082 0.707132 0.000000
vn -0.258800 0.965931 0.000000
vn -0.258800 0.965931 0.000000
vn -0.965934 0.258787 0.000000
vn -0.965934 0.258787 0.000000
vn -0.707082 0.707132 0.000000
vn -0.499985 0.866034 0.000000
vn -0.499985 0.866034 0.000000
vn -0.707082 0.707132 0.000000
vn 0.999734 -0.000006 0.023068
vn 0.999734 -0.000006 0.023068
vn 0.999734 -0.000006 0.023068
vn 0.999734 -0.000006 0.023068
vn 0.999734 -0.000006 0.023068
vn 0.000000 0.000000 -1.000000
vn 0.000000 0.000000 -1.000000
vn 0.000000 0.000000 -1.000000
vn 0.000000 0.000000 -1.000000
vn 0.000000 0.000000 -1.000000
vn 0.999731 -0.000026 0.023184
vn 0.999731 -0.000026 0.023184
vn 0.999731 -0.000026 0.023184
vn 0.999731 -0.000026 0.023184
vn 0.999731 -0.000026 0.023184
vn 0.000005 0.000000 -1.000000
vn 0.000005 0.000000 -1.000000
vn 0.000005 0.000000 -1.000000
vn 0.000005 0.000000 -1.000000
vn 0.000005 0.000000 -1.000000
vn 0.000000 -1.000000 0.000000
vn 0.000000 -1.000000 0.000000
vn 0.000000 -1.000000 0.000000
vn 0.000000 -1.000000 0.000000
vn 0.781189 0.000000 -0.624294
vn 0.781189 0.000000 -0.624294
vn 0.781189 0.000000 -0.624294
vn 0.781189 0.000000 -0.624294
vn 0.000000 1.000000 -0.000000
vn 0.000000 1.000000 -0.000000
vn 0.000000 1.000000 -0.000000
vn 0.000000 1.000000 -0.000000
vn -0.852926 0.000000 0.522032
vn -0.852926 0.000000 0.522032
vn -0.852926 0.000000 0.522032
vn -0.852926 0.000000 0.522032
vn 0.000000 -1.000000 0.000000
vn 0.000000 -1.000000 0.000000
vn 0.000000 -1.000000 0.000000
vn 0.000000 -1.000000 0.000000
vn 0.781183 0.000000 -0.624303
vn 0.781183 0.000000 -0.624303
vn 0.781183 0.000000 -0.624303
vn 0.781183 0.000000 -0.624303
vn 0.000000 1.000000 0.000000
vn 0.000000 1.000000 0.000000
vn 0.000000 1.000000 0.000000
vn 0.000000 1.000000 0.000000
vn -0.843078 0.000000 0.537791
vn -0.843078 0.000000 0.537791
vn -0.843078 0.000000 0.537791
vn -0.843078 0.000000 0.537791
vn -0.835526 0.135840 0.532395
vn -0.835526 0.135840 0.532395
vn -0.835526 0.135840 0.532395
vn -0.835526 0.135840 0.532395
vn -0.152872 0.983683 0.094860
vn -0.152872 0.983683 0.094860
vn -0.152872 0.983683 0.094860
vn -0.152872 0.983683 0.094860
vn -0.772521 0.403545 0.490268
vn -0.772521 0.403545 0.490269
vn -0.772521 0.403545 0.490268
vn -0.772521 0.403545 0.490268
vn -0.430032 0.861835 0.268912
vn -0.430032 0.861835 0.268912
vn -0.430032 0.861835 0.268912
vn -0.430032 0.861835 0.268912
vn -0.639607 0.654498 0.403158
vn -0.639607 0.654498 0.403158
vn -0.639607 0.654498 0.403158
vn -0.639607 0.654498 0.403157
vn 0.781185 0.000000 -0.624300
vn 0.781185 0.000000 -0.624300
vn 0.781185 0.000000 -0.624300
vn 0.781185 0.000000 -0.624300
vn 0.000000 1.000000 0.000000
vn 0.000000 1.000000 0.000000
vn 0.000000 1.000000 0.000000
vn 0.000000 1.000000 0.000000
vn -0.240302 0.954907 0.174379
vn -0.240301 0.954907 0.174379
vn -0.240302 0.954907 0.174379
vn -0.240302 0.954907 0.174379
vn -0.618562 0.653354 0.436473
vn -0.618562 0.653354 0.436473
vn -0.618562 0.653354 0.436473
vn -0.618562 0.653354 0.436473
vn -0.799556 0.225175 0.556782
vn -0.799556 0.225175 0.556782
vn -0.799556 0.225175 0.556782
vn -0.799556 0.225175 0.556782
vn -0.821485 0.000000 0.570231
vn -0.821485 0.000000 0.570231
vn -0.821485 0.000000 0.570231
vn -0.821485 0.000000 0.570231
vn -0.646275 0.654721 0.392006
vn -0.646275 0.654721 0.392006
vn -0.646275 0.654721 0.392006
vn -0.646275 0.654721 0.392006
vn -0.833067 0.226086 0.504861
vn -0.833067 0.226086 0.504861
vn -0.833067 0.226086 0.504861
vn -0.833067 0.226086 0.504861
vn -0.855264 0.000000 0.518192
vn -0.855264 0.000000 0.518192
vn -0.855264 0.000000 0.518192
vn -0.855264 0.000000 0.518192
vn 0.000000 -1.000000 0.000000
vn 0.000000 -1.000000 0.000000
vn 0.000000 -1.000000 0.000000
vn 0.000000 -1.000000 0.000000
vn 0.000000 1.000000 -0.000000
vn 0.000000 1.000000 -0.000000
vn 0.000000 1.000000 -0.000000
vn 0.000000 1.000000 -0.000000
vn -0.252518 0.955352 0.153416
vn -0.252518 0.955352 0.153416
vn -0.252518 0.955352 0.153416
vn -0.252518 0.955352 0.153416
vn 0.000000 -1.000000 0.000000
vn 0.000000 -1.000000 0.000000
vn 0.000000 -1.000000 0.000000
vn 0.000000 -1.000000 0.000000
vn 0.000235 0.000000 -1.000000
vn 0.000235 0.000000 -1.000000
vn 0.000235 0.000000 -1.000000
vn 0.000235 0.000000 -1.000000
vn 0.000000 1.000000 0.000000
vn 0.000000 1.000000 0.000000
vn 0.000000 1.000000 0.000000
vn 0.000000 1.000000 0.000000
vn -0.001790 0.000000 0.999998
vn -0.001790 0.000000 0.999998
vn -0.001790 0.000000 0.999998
vn -0.001790 0.000000 0.999998
vn 0.000000 -1.000000 0.000000
vn 0.000000 -1.000000 0.000000
vn 0.000000 -1.000000 0.000000
vn 0.000000 -1.000000 0.000000
vn 0.000235 0.000000 -1.000000
vn 0.000235 0.000000 -1.000000
vn 0.000235 0.000000 -1.000000
vn 0.000235 0.000000 -1.000000
vn 0.000000 1.000000 0.000000
vn 0.000000 1.000000 0.000000
vn 0.000000 1.000000 0.000000
vn 0.000000 1.000000 0.000000
vn -0.001014 0.000000 1.000000
vn -0.001014 0.000000 1.000000
vn -0.001014 0.000000 1.000000
vn -0.001014 0.000000 1.000000
vn -0.001015 0.146230 0.989250
vn -0.001015 0.146230 0.989250
vn -0.001015 0.146230 0.989250
vn -0.001015 0.146230 0.989250
vn -0.000240 0.985893 0.167375
vn -0.000240 0.985893 0.167375
vn -0.000240 0.985893 0.167375
vn -0.000240 0.985893 0.167375
vn -0.000970 0.429175 0.903221
vn -0.000970 0.429175 0.903221
vn -0.000970 0.429175 0.903221
vn -0.000970 0.429175 0.903221
vn -0.000618 0.877589 0.479414
vn -0.000618 0.877589 0.479414
vn -0.000618 0.877589 0.479414
vn -0.000618 0.877589 0.479414
vn -0.000852 0.682132 0.731229
vn -0.000852 0.682132 0.731229
vn -0.000852 0.682132 0.731229
vn -0.000852 0.682132 0.731229
vn 0.000235 0.000000 -1.000000
vn 0.000235 0.000000 -1.000000
vn 0.000235 0.000000 -1.000000
vn 0.000235 0.000000 -1.000000
vn 0.000000 1.000000 0.000000
vn 0.000000 1.000000 0.000000
vn 0.000000 1.000000 0.000000
vn 0.000000 1.000000 0.000000
vn -0.000105 0.961144 0.276049
vn -0.000105 0.961144 0.276049
vn -0.000105 0.961144 0.276049
vn -0.000105 0.961144 0.276049
vn -0.000329 0.682304 0.731068
vn -0.000329 0.682304 0.731068
vn -0.000329 0.682304 0.731068
vn -0.000329 0.682304 0.731068
vn -0.000475 0.241900 0.970301
vn -0.000475 0.241900 0.970301
vn -0.000475 0.241900 0.970301
vn -0.000475 0.241900 0.970301
vn -0.000501 0.000000 1.000000
vn -0.000501 0.000000 1.000000
vn -0.000501 0.000000 1.000000
vn -0.000501 0.000000 1.000000
vn -0.001553 0.682241 0.731126
vn -0.001553 0.682241 0.731126
vn -0.001553 0.682241 0.731126
vn -0.001553 0.682241 0.731126
vn -0.002099 0.242207 0.970222
vn -0.002099 0.242207 0.970222
vn -0.002099 0.242207 0.970222
vn -0.002099 0.242207 0.970222
vn -0.002174 0.000000 0.999998
vn -0.002174 0.000000 0.999998
vn -0.002174 0.000000 0.999998
vn -0.002174 0.000000 0.999998
vn 0.000000 -1.000000 0.000000
vn 0.000000 -1.000000 0.000000
vn 0.000000 -1.000000 0.000000
vn 0.000000 -1.000000 0.000000
vn 0.000000 1.000000 0.000000
vn 0.000000 1.000000 0.000000
vn 0.000000 1.000000 0.000000
vn 0.000000 1.000000 0.000000
vn -0.000567 0.961178 0.275927
vn -0.000567 0.961178 0.275927
vn -0.000567 0.961178 0.275927
vn -0.000567 0.961178 0.275927
s 1
g hallway_trim_bend_outwards
usemtl initialShadingGroup
f 82/1/1 83/2/2 84/3/3 85/4/4 86/5/5
s off
f 7/89/6 33/90/7 34/91/8 10/92/9
f 5/97/10 6/98/11 2/99/12 1/100/13
f 2/32/14 6/33/15 4/34/16 3/35/17
s 2
f 39/44/18 40/45/19 51/46/20 53/47/21
s off
f 3/35/22 4/34/23 9/36/24 8/37/25
s 3
f 4/159/26 27/160/27 26/161/28 10/162/29 34/163/30 9/164/31
s 4
f 26/56/32 16/57/33 7/58/34 10/59/35
s off
f 5/97/36 1/100/37 12/103/38 11/104/39
s 1
f 82/1/40 86/5/5 87/12/41 88/13/42 89/14/43 90/15/44
s 4
f 15/113/45 21/114/46 14/115/47 13/116/48
s 1
f 91/6/49 85/4/4 84/3/50 92/7/51 93/8/52 94/9/53
s 3
f 21/176/54 28/165/55 5/167/56 11/177/57 36/178/58 14/179/59
f 28/165/55 27/160/27 4/159/60 6/166/61 5/167/62
s 4
f 15/113/45 20/117/63 22/118/64 21/114/46
f 20/117/63 19/122/65 23/123/66 22/118/64
f 19/68/65 18/65/67 24/66/68 23/69/66
f 18/65/67 17/60/69 25/61/70 24/66/68
f 17/60/69 16/57/33 26/56/32 25/61/70
s 1
f 91/6/49 95/16/71 96/10/72 85/4/4
f 85/4/4 96/10/72 97/11/73 86/5/5
f 86/5/5 97/11/73 98/24/74 87/12/41
f 95/16/71 99/30/75 100/22/76 96/10/72
f 96/10/72 100/22/76 101/23/77 97/11/73
f 97/11/73 101/23/77 102/31/78 98/24/74
f 102/31/78 101/23/77 100/22/76 99/30/75
s 3
f 21/176/54 22/182/79 29/175/80 28/165/55
f 28/165/55 29/175/80 30/168/81 27/160/27
f 27/160/27 30/168/81 25/169/82 26/161/28
f 22/182/79 23/189/83 31/183/84 29/175/80
f 29/175/80 31/183/84 32/180/85 30/168/81
f 30/168/81 32/180/85 24/181/86 25/169/82
f 24/181/86 32/180/85 31/183/84 23/189/83
s 10
f 45/131/87 41/132/88 37/133/89 38/134/90
s off
f 36/71/91 35/72/92 13/73/93 14/74/94
s 11
f 34/77/95 33/78/96 44/79/97 46/80/98
s off
f 8/37/99 9/36/100 38/40/101 37/41/102
f 11/104/103 12/103/104 40/108/105 39/109/106
s 12
f 35/145/107 36/146/108 56/147/109 52/148/110
s 11
f 44/79/97 43/83/111 47/84/112 46/80/98
s off
f 43/83/113 42/86/114 48/87/115 47/84/116
s 10
f 42/135/117 41/132/88 45/131/87 48/136/118
s 2
f 51/46/20 50/50/119 54/51/120 53/47/21
s 12
f 50/50/121 49/53/122 55/54/123 54/51/124
f 49/149/122 52/148/110 56/147/109 55/150/123
s 1
f 93/8/52 92/7/51 103/17/125 104/18/126 105/19/127 106/20/128 107/21/129
s 3
f 45/170/130 38/171/131 9/164/31 34/163/30 46/172/132 47/173/133 48/174/134
s 1
f 109/25/135 108/26/136 110/27/137 111/28/138 90/15/44 89/14/43 112/29/139
s 3
f 36/178/58 11/177/57 39/184/140 53/185/141 54/186/142 55/187/143 56/188/144
s off
f 1/100/145 2/99/146 58/101/147 57/102/148
f 2/32/149 3/35/150 59/38/151 58/39/152
f 15/113/153 13/116/154 61/119/155 60/120/156
f 13/73/157 35/72/158 62/75/159 61/76/160
f 12/103/161 1/100/162 57/102/163 63/107/164
f 3/35/165 8/37/166 65/42/167 59/38/168
f 33/90/169 7/89/170 67/93/171 66/94/172
f 7/58/173 16/57/174 64/62/175 67/63/176
f 16/57/177 17/60/178 68/64/179 64/62/180
f 20/117/181 15/113/182 60/120/183 69/121/184
f 17/60/185 18/65/186 70/67/187 68/64/188
f 19/122/189 20/117/190 69/121/191 71/127/192
f 18/65/193 19/68/194 71/70/195 70/67/196
f 8/37/197 37/41/198 72/43/199 65/42/200
f 37/133/201 41/132/202 73/137/203 72/138/204
f 41/132/205 42/135/206 74/139/207 73/137/208
f 42/86/209 43/83/210 75/85/211 74/88/212
f 43/83/213 44/79/214 76/82/215 75/85/216
f 44/79/217 33/78/218 66/81/219 76/82/220
f 49/53/221 50/50/222 77/52/223 78/55/224
f 50/50/225 51/46/226 79/49/227 77/52/228
f 51/46/229 40/45/230 80/48/231 79/49/232
f 40/108/233 12/103/234 63/107/235 80/111/236
f 35/145/237 52/148/238 81/151/239 62/152/240
f 52/148/241 49/149/242 78/153/243 81/151/244
f 57/102/245 58/101/246 83/105/247 82/106/248
f 58/190/249 59/191/250 84/192/251 83/193/252
f 60/120/253 61/119/254 88/124/255 87/125/256
f 61/198/257 62/199/258 89/200/259 88/201/260
f 63/107/261 57/102/262 82/106/263 90/110/264
f 59/191/265 65/194/266 92/195/267 84/192/268
f 66/94/269 67/93/270 94/95/271 93/96/272
f 67/202/273 64/203/274 91/204/275 94/205/276
f 64/203/277 68/206/278 95/207/279 91/204/280
f 69/121/281 60/120/282 87/125/283 98/126/284
f 68/206/285 70/208/286 99/209/287 95/207/288
f 71/127/289 69/121/290 98/126/291 102/128/292
f 70/129/293 71/127/294 102/128/295 99/130/296
f 65/194/297 72/196/298 103/197/299 92/195/300
f 72/138/301 73/137/302 104/140/303 103/141/304
f 73/137/305 74/139/306 105/142/307 104/140/308
f 74/139/309 75/143/310 106/144/311 105/142/312
f 75/210/313 76/211/314 107/212/315 106/213/316
f 76/211/317 66/214/318 93/215/319 107/212/320
f 78/153/321 77/157/322 108/158/323 109/156/324
f 77/216/325 79/217/326 110/218/327 108/219/328
f 79/217/329 80/220/330 111/221/331 110/218/332
f 80/111/333 63/107/334 90/110/335 111/112/336
f 62/152/337 81/151/338 112/154/339 89/155/340
f 81/151/341 78/153/342 109/156/343 112/154/344
