# This file uses centimeters as units for non-parametric coordinates.

mtllib side wall.mtl
g default
v 93.173360 13.460538 61.035020
v 103.600928 13.460538 61.035020
v 93.173360 20.118488 61.035020
v 103.600928 20.118488 61.035020
v 93.173360 20.118488 60.179691
v 103.600928 20.118488 60.179691
v 93.173360 13.460538 60.179691
v 103.600928 13.460538 60.179691
vt 0.937684 0.001620
vt 0.989462 0.001620
vt 0.989462 0.404661
vt 0.937684 0.404661
vt 0.946230 0.408652
vt 0.998008 0.408652
vt 0.998008 0.811693
vt 0.946230 0.811693
vt 0.411467 0.632856
vt 0.411467 0.001620
vt 0.463245 0.001620
vt 0.463245 0.632856
vt 0.879216 0.632856
vt 0.879216 0.001620
vt 0.930993 0.001620
vt 0.930993 0.632856
vt 0.001992 0.632856
vt 0.001992 0.001620
vt 0.405033 0.001620
vt 0.405033 0.632856
vt 0.469936 0.632856
vt 0.469936 0.001620
vt 0.872976 0.001620
vt 0.872976 0.632856
vn 0.000000 0.000000 1.000000
vn 0.000000 0.000000 1.000000
vn 0.000000 0.000000 1.000000
vn 0.000000 0.000000 1.000000
vn 0.000000 1.000000 0.000000
vn 0.000000 1.000000 0.000000
vn 0.000000 1.000000 0.000000
vn 0.000000 1.000000 0.000000
vn 0.000000 0.000000 -1.000000
vn 0.000000 0.000000 -1.000000
vn 0.000000 0.000000 -1.000000
vn 0.000000 0.000000 -1.000000
vn 0.000000 -1.000000 0.000000
vn 0.000000 -1.000000 0.000000
vn 0.000000 -1.000000 0.000000
vn 0.000000 -1.000000 0.000000
vn 1.000000 0.000000 0.000000
vn 1.000000 0.000000 0.000000
vn 1.000000 0.000000 0.000000
vn 1.000000 0.000000 0.000000
vn -1.000000 0.000000 0.000000
vn -1.000000 0.000000 0.000000
vn -1.000000 0.000000 0.000000
vn -1.000000 0.000000 0.000000
s off
g side_wall
usemtl initialShadingGroup
f 1/17/1 2/18/2 4/19/3 3/20/4
f 3/9/5 4/10/6 6/11/7 5/12/8
f 5/21/9 6/22/10 8/23/11 7/24/12
f 7/13/13 8/14/14 2/15/15 1/16/16
f 2/1/17 8/2/18 6/3/19 4/4/20
f 7/5/21 1/6/22 3/7/23 5/8/24
